<svg width="88" height="78" viewBox="0 0 88 78" fill="none" xmlns="http://www.w3.org/2000/svg">
<path d="M37.4533 7.68584L5.0261 61.8205C4.35753 62.9783 4.00377 64.291 4.00003 65.628C3.99629 66.965 4.34269 68.2796 5.00477 69.4412C5.66685 70.6027 6.62153 71.5707 7.77383 72.2487C8.92614 72.9267 10.2359 73.2912 11.5728 73.3059H76.4272C77.7641 73.2912 79.0739 72.9267 80.2262 72.2487C81.3785 71.5707 82.3332 70.6027 82.9952 69.4412C83.6573 68.2796 84.0037 66.965 84 65.628C83.9962 64.291 83.6425 62.9783 82.9739 61.8205L50.5467 7.68584C49.8642 6.56068 48.9032 5.63041 47.7565 4.98479C46.6098 4.33917 45.316 4 44 4C42.684 4 41.3902 4.33917 40.2435 4.98479C39.0968 5.63041 38.1358 6.56068 37.4533 7.68584Z" fill="#F5DE09" stroke="#121212" stroke-width="8" stroke-linecap="round" stroke-linejoin="round"/>
<path d="M43.9999 27.3638V42.6777" stroke="#121212" stroke-width="8" stroke-linecap="round" stroke-linejoin="round"/>
<path d="M43.9999 57.9922H44.0382" stroke="#121212" stroke-width="8" stroke-linecap="round" stroke-linejoin="round"/>
</svg>
