<?xml version="1.0" encoding="utf-8"?>
<!-- Generator: Adobe Illustrator 24.2.1, SVG Export Plug-In . SVG Version: 6.00 Build 0)  -->
<svg version="1.1" id="Layer_1" xmlns="http://www.w3.org/2000/svg" xmlns:xlink="http://www.w3.org/1999/xlink" x="0px" y="0px"
	 viewBox="0 0 24 24" style="enable-background:new 0 0 24 24;" xml:space="preserve">
<style type="text/css">
	.st0{clip-path:url(#SVGID_2_);}
	.st1{fill:#0077C3;}
	.st2{fill:#84CB26;}
</style>
<g>
	<defs>
		<rect id="SVGID_1_" x="2" y="2" width="20" height="20"/>
	</defs>
	<clipPath id="SVGID_2_">
		<use xlink:href="#SVGID_1_"  style="overflow:visible;"/>
	</clipPath>
	<g class="st0">
		<path class="st1" d="M10.11,4.52c0.08,0,0.22-0.01,0.46-0.18c0.03,0.18,0.14,0.33,0.32,0.39l0.09,0.02
			c0.35,0.1,0.69,0.14,1.02,0.14s0.66-0.05,0.99-0.14l0.12-0.03c0.18-0.06,0.29-0.21,0.32-0.39c0.24,0.17,0.38,0.18,0.44,0.18
			c0,0,0,0,0,0c0.35,0,0.62-0.26,0.63-0.59c0.01-0.16-0.05-0.32-0.16-0.44s-0.26-0.19-0.43-0.19c-0.01,0-0.01,0-0.02,0
			c-0.06,0-0.2,0-0.47,0.17c-0.03-0.1-0.08-0.19-0.17-0.26c-0.09-0.06-0.19-0.1-0.3-0.1c-0.05,0-0.1,0.01-0.15,0.02
			c-0.26,0.08-0.53,0.12-0.8,0.12c-0.26,0-0.51-0.06-0.8-0.12c-0.04-0.01-0.08-0.01-0.12-0.01c-0.12,0-0.23,0.04-0.32,0.11
			c-0.08,0.06-0.13,0.15-0.17,0.24c-0.27-0.17-0.42-0.17-0.48-0.17c-0.01,0-0.01,0-0.02,0C9.93,3.3,9.78,3.37,9.66,3.49
			S9.49,3.76,9.5,3.93C9.51,4.26,9.78,4.52,10.11,4.52z M13.89,3.79C13.89,3.79,13.89,3.79,13.89,3.79C13.95,3.8,14,3.85,14,3.91
			c0,0.06-0.05,0.11-0.11,0.11c0,0,0,0,0,0c-0.06,0-0.22-0.12-0.22-0.12S13.83,3.79,13.89,3.79z M11.05,4.02V3.88V3.61
			c0.32,0.07,0.62,0.15,0.95,0.15s0.65-0.05,0.95-0.15v0.27v0.14v0.22c-0.03,0.01-0.07,0.02-0.1,0.03C12.58,4.35,12.3,4.39,12,4.39
			s-0.58-0.04-0.85-0.12c-0.03-0.01-0.07-0.02-0.1-0.03V4.02z M10.11,3.79C10.11,3.79,10.11,3.79,10.11,3.79
			c0.06,0,0.23,0.1,0.23,0.1s-0.16,0.12-0.22,0.12c0,0,0,0,0,0C10.05,4.02,10,3.97,10,3.91C10,3.85,10.05,3.8,10.11,3.79z
			 M10.11,6.52c0.08,0,0.22-0.01,0.46-0.18c0.03,0.18,0.14,0.33,0.32,0.39l0.09,0.02c0.35,0.1,0.69,0.14,1.02,0.14
			s0.66-0.05,0.99-0.14l0.12-0.03c0.18-0.06,0.29-0.21,0.32-0.39c0.24,0.17,0.38,0.18,0.44,0.18c0,0,0,0,0,0
			c0.35,0,0.62-0.26,0.63-0.59c0.01-0.16-0.05-0.32-0.16-0.44s-0.26-0.19-0.43-0.19c-0.01,0-0.01,0-0.02,0c-0.06,0-0.2,0-0.47,0.17
			c-0.03-0.1-0.08-0.19-0.17-0.26c-0.09-0.06-0.19-0.1-0.3-0.1c-0.05,0-0.1,0.01-0.15,0.02c-0.26,0.08-0.53,0.12-0.8,0.12
			c-0.26,0-0.51-0.06-0.8-0.12c-0.04-0.01-0.08-0.01-0.12-0.01c-0.12,0-0.23,0.04-0.32,0.11c-0.08,0.06-0.13,0.15-0.17,0.24
			c-0.27-0.17-0.42-0.17-0.48-0.17c-0.01,0-0.01,0-0.02,0C9.93,5.3,9.78,5.37,9.66,5.49S9.49,5.76,9.5,5.93
			C9.51,6.26,9.78,6.52,10.11,6.52z M13.89,5.79C13.89,5.79,13.89,5.79,13.89,5.79C13.95,5.8,14,5.85,14,5.91
			c0,0.06-0.05,0.11-0.11,0.11c0,0,0,0,0,0c-0.06,0-0.22-0.12-0.22-0.12S13.83,5.79,13.89,5.79z M11.05,6.02V5.88V5.61
			c0.32,0.07,0.62,0.15,0.95,0.15s0.65-0.05,0.95-0.15v0.27v0.14v0.22c-0.03,0.01-0.07,0.02-0.1,0.03C12.58,6.35,12.3,6.39,12,6.39
			s-0.58-0.04-0.85-0.12c-0.03-0.01-0.07-0.02-0.1-0.03V6.02z M10.11,5.79C10.11,5.79,10.11,5.79,10.11,5.79
			c0.06,0,0.23,0.1,0.23,0.1s-0.16,0.12-0.22,0.12c0,0,0,0,0,0C10.05,6.02,10,5.97,10,5.91C10,5.85,10.05,5.8,10.11,5.79z
			 M21.03,14.21c-0.39-0.25-0.83-0.29-1.23-0.1c-1.45,0.67-2.57,0.88-3.16,0.57c-0.16-0.08-0.3-0.21-0.39-0.39
			c0.5-0.28,1.52-0.77,1.93-0.97c1.18-0.61,2-2.07,2-3.57c0-2.15-1.5-3.9-3.36-3.9c-0.92,0-1.79,0.61-2.03,0.8
			c-0.22,0.17-0.44,0.31-0.65,0.45c0.14,0.04,0.28,0.11,0.38,0.22c0.16,0.17,0.24,0.39,0.23,0.62c-0.01,0.19-0.08,0.35-0.19,0.49
			c0.35-0.2,0.7-0.42,1.06-0.7c0.33-0.25,0.83-0.51,1.2-0.51c1.1,0,2,1.13,2,2.53c0,1.11-0.65,2.04-1.24,2.34
			c-0.07,0.03-1.66,0.79-2.2,1.12c-0.05,0.03-0.09,0.06-0.13,0.09c-0.09,0.07-0.18,0.15-0.25,0.24c-0.3,0.35-0.47,0.83-0.47,1.35
			v1.29c0,0.28-0.13,0.48-0.27,0.56c-0.2,0.12-0.33-0.07-0.37-0.12l-1.06-1.57c0,0-0.11-0.16-0.15-0.21
			c-0.17-0.2-0.42-0.31-0.68-0.31s-0.51,0.11-0.69,0.31c-0.03,0.05-0.13,0.19-0.13,0.19l-1.06,1.58c-0.04,0.05-0.13,0.17-0.26,0.17
			c-0.02,0-0.06,0-0.13-0.04c-0.13-0.08-0.26-0.28-0.26-0.56v-1.29c0-0.52-0.17-1-0.47-1.35c-0.07-0.09-0.16-0.17-0.25-0.24
			c-0.04-0.03-0.08-0.06-0.13-0.09c-0.54-0.33-2.13-1.09-2.18-1.11c-0.61-0.31-1.26-1.24-1.26-2.35c0-1.4,0.9-2.53,2-2.53
			c0.37,0,0.87,0.26,1.2,0.51c0.36,0.28,0.71,0.5,1.06,0.69c-0.11-0.14-0.18-0.3-0.19-0.49C9.24,7.7,9.32,7.49,9.48,7.32
			c0.1-0.11,0.24-0.18,0.39-0.22C9.66,6.96,9.44,6.81,9.21,6.64C8.97,6.46,8.1,5.85,7.18,5.85c-1.86,0-3.36,1.75-3.36,3.9
			c0,1.5,0.82,2.96,2.02,3.58c0.39,0.19,1.41,0.68,1.91,0.96c-0.09,0.18-0.23,0.31-0.39,0.39c-0.42,0.22-1.31,0.29-3.16-0.57
			c-0.4-0.19-0.84-0.15-1.23,0.1C2.41,14.56,2,15.34,2,16.04c0,1.1,0.89,1.99,2.06,1.99c0.17,0.17,0.17,1.29,0.17,2.47h1
			c0-2.38,0-3.47-1.24-3.47C3.44,17.03,3,16.59,3,16.04c0-0.36,0.23-0.82,0.5-0.99c0.15-0.09,0.24-0.06,0.27-0.04
			c1.81,0.85,3.14,1.03,4.05,0.56c0.06-0.03,0.12-0.06,0.17-0.1c-0.01,0.34-0.06,0.65-0.19,0.78c-0.02,0.02-0.05,0.02-0.1,0.04
			c-0.48,0-0.85,0.15-1.16,0.46c-0.83,0.81-0.83,2.51-0.83,3.75h1c0-1,0-2.52,0.53-3.04c0.12-0.12,0.23-0.17,0.45-0.17
			c0.25,0,0.45-0.05,0.62-0.17c0.17,0.33,0.42,0.62,0.73,0.8c0.76,0.44,1.69,0.21,2.21-0.54L12,16.27l0.76,1.12
			c0.33,0.48,0.84,0.76,1.38,0.76c0.29,0,0.56-0.08,0.82-0.23c0.32-0.19,0.57-0.47,0.73-0.81c0.17,0.12,0.38,0.18,0.6,0.18h0.03
			c0.18,0,0.32,0.05,0.44,0.17c0.53,0.52,0.53,2.04,0.53,3.04h1c0-1.24,0-2.94-0.83-3.75c-0.31-0.31-0.71-0.46-1.16-0.46
			c-0.05-0.01-0.08-0.02-0.1-0.04c-0.13-0.13-0.18-0.44-0.19-0.78c0.05,0.04,0.11,0.07,0.17,0.1c0.91,0.47,2.24,0.29,4.05-0.56
			c0.04-0.02,0.12-0.06,0.27,0.04c0.27,0.17,0.5,0.63,0.5,0.99c0,0.55-0.44,0.99-0.99,0.99c-1.24,0-1.24,1.09-1.24,3.47h1
			c0-1.18,0-2.3,0.24-2.47c1.1,0,1.99-0.89,1.99-1.99C22,15.34,21.59,14.56,21.03,14.21z M13.91,7.29c-0.01,0-0.01,0-0.02,0
			c-0.06,0-0.2,0-0.47,0.17c-0.03-0.1-0.08-0.19-0.17-0.26c-0.09-0.06-0.19-0.1-0.3-0.1c-0.05,0-0.1,0.01-0.15,0.02
			c-0.26,0.08-0.53,0.12-0.8,0.12c-0.26,0-0.51-0.06-0.8-0.12c-0.04-0.01-0.08-0.01-0.12-0.01c-0.12,0-0.23,0.04-0.32,0.11
			c-0.08,0.06-0.13,0.15-0.17,0.24c-0.27-0.17-0.42-0.17-0.48-0.17c-0.01,0-0.01,0-0.02,0C9.93,7.3,9.78,7.37,9.66,7.49
			S9.49,7.76,9.5,7.93c0.01,0.33,0.28,0.59,0.61,0.59c0.08,0,0.22-0.01,0.46-0.18c0.03,0.18,0.14,0.33,0.32,0.39l0.09,0.02
			c0.36,0.1,0.69,0.14,1.02,0.14s0.66-0.05,0.99-0.14l0.12-0.03c0.18-0.06,0.29-0.21,0.32-0.39c0.24,0.17,0.38,0.18,0.44,0.18
			c0,0,0,0,0,0c0.35,0,0.62-0.26,0.63-0.59c0.01-0.16-0.05-0.32-0.16-0.44S14.07,7.3,13.91,7.29z M10.12,8.02
			C10.11,8.02,10.11,8.02,10.12,8.02C10.05,8.02,10,7.97,10,7.91c0-0.06,0.05-0.11,0.11-0.11c0,0,0,0,0,0c0.06,0,0.22,0.1,0.22,0.1
			S10.18,8.01,10.12,8.02z M12.95,7.88v0.14v0.22c-0.03,0.01-0.07,0.02-0.1,0.03C12.58,8.35,12.3,8.39,12,8.39s-0.58-0.04-0.85-0.12
			c-0.03-0.01-0.07-0.02-0.1-0.03V8.02V7.88V7.61c0.32,0.07,0.62,0.15,0.95,0.15s0.65-0.05,0.95-0.15V7.88z M13.89,8.02
			C13.89,8.02,13.89,8.02,13.89,8.02c-0.07,0-0.22-0.12-0.22-0.12s0.16-0.1,0.22-0.1c0,0,0,0,0,0C13.95,7.8,14,7.85,14,7.91
			C14,7.97,13.95,8.02,13.89,8.02z M9.25,12.5c0,0.84,1.21,1.5,2.75,1.5s2.75-0.66,2.75-1.5c0-0.11-0.02-0.21-0.06-0.31
			c-0.08,0.24-0.26,0.43-0.5,0.52c-0.22,0.41-1.05,0.8-2.19,0.8c-1.13,0-1.97-0.39-2.19-0.79c-0.24-0.09-0.42-0.28-0.5-0.52
			C9.27,12.29,9.25,12.39,9.25,12.5z M10.11,12.52c0.08,0,0.22-0.01,0.46-0.18c0.03,0.18,0.14,0.33,0.32,0.39l0.09,0.02
			c0.36,0.1,0.69,0.14,1.02,0.14s0.66-0.05,0.99-0.14l0.12-0.03c0.18-0.06,0.29-0.21,0.32-0.39c0.24,0.17,0.38,0.18,0.44,0.18
			c0,0,0,0,0,0c0.35,0,0.62-0.26,0.63-0.59c0.01-0.34-0.25-0.62-0.59-0.63c-0.01,0-0.01,0-0.02,0c-0.06,0-0.2,0-0.47,0.17
			c-0.03-0.1-0.08-0.19-0.17-0.26c-0.09-0.06-0.19-0.1-0.3-0.1c-0.05,0-0.1,0.01-0.15,0.02c-0.26,0.08-0.53,0.12-0.8,0.12
			c-0.26,0-0.51-0.06-0.8-0.12c-0.04-0.01-0.08-0.01-0.12-0.01c-0.12,0-0.23,0.04-0.32,0.11c-0.08,0.06-0.13,0.15-0.17,0.24
			c-0.27-0.17-0.42-0.17-0.48-0.17c-0.01,0-0.01,0-0.02,0c-0.34,0.01-0.6,0.3-0.59,0.63C9.51,12.26,9.78,12.52,10.11,12.52z
			 M13.89,11.79C13.89,11.79,13.89,11.79,13.89,11.79c0.06,0,0.11,0.05,0.11,0.12c0,0.06-0.05,0.11-0.11,0.11c0,0,0,0,0,0
			c-0.06,0-0.22-0.12-0.22-0.12S13.83,11.79,13.89,11.79z M11.05,12.02v-0.14v-0.27c0.32,0.07,0.62,0.15,0.95,0.15
			s0.65-0.05,0.95-0.15v0.27v0.14v0.22c-0.03,0.01-0.07,0.02-0.1,0.03c-0.27,0.08-0.56,0.12-0.85,0.12s-0.58-0.04-0.85-0.12
			c-0.03-0.01-0.07-0.02-0.1-0.03V12.02z M10.11,11.79C10.11,11.79,10.11,11.79,10.11,11.79c0.06,0,0.23,0.1,0.23,0.1
			s-0.16,0.12-0.22,0.12c0,0,0,0,0,0c-0.06,0-0.11-0.05-0.11-0.11C10,11.85,10.05,11.8,10.11,11.79z M10.11,10.52
			c0.08,0,0.22-0.01,0.46-0.18c0.03,0.18,0.14,0.33,0.32,0.39l0.09,0.02c0.36,0.1,0.69,0.14,1.02,0.14s0.66-0.05,0.99-0.14
			l0.12-0.03c0.18-0.06,0.29-0.21,0.32-0.39c0.24,0.17,0.38,0.18,0.44,0.18c0,0,0,0,0,0c0.35,0,0.62-0.26,0.63-0.59
			c0.01-0.34-0.25-0.62-0.59-0.63c-0.01,0-0.01,0-0.02,0c-0.06,0-0.2,0-0.47,0.17c-0.03-0.1-0.08-0.19-0.17-0.26
			c-0.09-0.06-0.19-0.1-0.3-0.1c-0.05,0-0.1,0.01-0.15,0.02c-0.26,0.08-0.53,0.12-0.8,0.12c-0.26,0-0.51-0.06-0.8-0.12
			c-0.04-0.01-0.08-0.01-0.12-0.01c-0.12,0-0.23,0.04-0.32,0.11c-0.08,0.06-0.13,0.15-0.17,0.24c-0.27-0.17-0.42-0.17-0.48-0.17
			c-0.01,0-0.01,0-0.02,0c-0.34,0.01-0.6,0.3-0.59,0.63C9.51,10.26,9.78,10.52,10.11,10.52z M13.89,9.79
			C13.89,9.79,13.89,9.79,13.89,9.79C13.95,9.8,14,9.85,14,9.91c0,0.06-0.05,0.11-0.11,0.11c0,0,0,0,0,0
			c-0.06,0-0.22-0.12-0.22-0.12S13.83,9.79,13.89,9.79z M11.05,10.02V9.88V9.61c0.32,0.07,0.62,0.15,0.95,0.15s0.65-0.05,0.95-0.15
			v0.27v0.14v0.22c-0.03,0.01-0.07,0.02-0.1,0.03c-0.27,0.08-0.56,0.12-0.85,0.12s-0.58-0.04-0.85-0.12
			c-0.03-0.01-0.07-0.02-0.1-0.03V10.02z M10.11,9.79C10.11,9.79,10.11,9.79,10.11,9.79c0.06,0,0.23,0.1,0.23,0.1
			s-0.16,0.12-0.22,0.12c0,0,0,0,0,0c-0.06,0-0.11-0.05-0.11-0.11C10,9.85,10.05,9.8,10.11,9.79z"/>
		<path class="st2" d="M2.98,15.68l-0.43,0.25l1.11,1.93L2.31,17.5c-0.1-0.03-0.2,0.01-0.26,0.09c-0.06,0.08-0.07,0.19-0.02,0.28
			l1.41,2.45l0.43-0.25l-1.11-1.93l1.35,0.36c0.1,0.03,0.2-0.01,0.26-0.09c0.06-0.08,0.07-0.19,0.02-0.28L2.98,15.68z M8.45,7.32
			l0.43-0.25L7.77,5.14L9.12,5.5c0.1,0.03,0.2-0.01,0.26-0.09C9.44,5.33,9.45,5.22,9.4,5.13L7.98,2.68L7.55,2.93l1.11,1.93L7.31,4.5
			c-0.1-0.03-0.2,0.01-0.26,0.09C6.99,4.67,6.98,4.78,7.03,4.87L8.45,7.32z M9.84,7.18c0,2.22-1.53,3.75-2.88,5.1
			c-0.73,0.73-1.42,1.42-1.79,2.17C4.13,16.51,5,21.06,5.1,21.57l1.47-0.29c-0.25-1.25-0.75-4.8-0.06-6.17
			c0.26-0.52,0.87-1.13,1.51-1.78c1.48-1.48,3.32-3.32,3.32-6.16V2.43h-1.5V7.18z M14.38,6.59c-0.06-0.08-0.17-0.12-0.26-0.09
			l-1.35,0.36l1.11-1.93l-0.43-0.25l-1.41,2.45c-0.05,0.09-0.04,0.2,0.02,0.28c0.06,0.08,0.16,0.12,0.26,0.09l1.35-0.36l-1.11,1.93
			l0.43,0.25l1.41-2.45C14.45,6.78,14.44,6.67,14.38,6.59z M9.12,17.5l-1.35,0.36l1.11-1.93l-0.43-0.25l-1.41,2.45
			c-0.05,0.09-0.04,0.2,0.02,0.28c0.06,0.08,0.16,0.12,0.26,0.09l1.35-0.36l-1.11,1.93l0.43,0.25l1.41-2.45
			c0.05-0.09,0.04-0.2-0.02-0.28C9.32,17.51,9.21,17.47,9.12,17.5z"/>
	</g>
</g>
</svg>
