<?xml version="1.0" encoding="utf-8"?>
<!-- Generator: Adobe Illustrator 24.2.1, SVG Export Plug-In . SVG Version: 6.00 Build 0)  -->
<svg version="1.1" id="Layer_1" xmlns="http://www.w3.org/2000/svg" xmlns:xlink="http://www.w3.org/1999/xlink" x="0px" y="0px"
	 viewBox="0 0 24 24" style="enable-background:new 0 0 24 24;" xml:space="preserve">
<style type="text/css">
	.st0{clip-path:url(#SVGID_2_);fill:#84CB26;}
	.st1{clip-path:url(#SVGID_2_);fill:#0077C3;}
</style>
<g>
	<defs>
		<rect id="SVGID_1_" x="2" y="2" width="20" height="20"/>
	</defs>
	<clipPath id="SVGID_2_">
		<use xlink:href="#SVGID_1_"  style="overflow:visible;"/>
	</clipPath>
	<path class="st0" d="M3.29,15.17c-0.1,0.02-0.18,0.1-0.21,0.2s0.02,0.2,0.1,0.26l2.37,1.66l0.29-0.42l-1.86-1.3l1.41-0.25
		c0.1-0.02,0.18-0.1,0.21-0.2s-0.02-0.2-0.1-0.26L3.12,13.2l-0.29,0.42l1.86,1.3L3.29,15.17z M6.38,18.69l-1.86,1.3l0.25-1.41
		c0.02-0.1-0.03-0.2-0.11-0.26c-0.09-0.06-0.2-0.05-0.28,0.01L2,19.99l0.29,0.42l1.86-1.3l-0.25,1.41c-0.02,0.1,0.03,0.2,0.11,0.26
		c0.04,0.03,0.09,0.04,0.14,0.04c0.05,0,0.1-0.01,0.15-0.05l2.37-1.66L6.38,18.69z"/>
	<path class="st1" d="M21.89,13.51l-1.79-3.14V9.82c0-2.19-0.93-4.28-2.55-5.74c-1.62-1.45-3.78-2.13-5.94-1.87
		c-3.5,0.43-6.27,3.33-6.58,6.9c-0.17,1.92,0.36,3.81,1.48,5.31c0.25,0.33,0.41,0.59,0.56,0.84c0.08,0.13,0.17,0.27,0.25,0.4
		c0.56,0.86,0.96,3.81,0.96,5.08c0,0.46,0.37,0.84,0.82,0.84h6.13c0.24,0,0.48-0.11,0.63-0.3c0.27-0.33,0.22-0.63,0.12-1.3
		c-0.05-0.32-0.12-0.75-0.16-1.2c0.25,0.04,0.5,0.06,0.76,0.06h1.35c1.2,0,2.17-0.99,2.17-2.2v-1.9h1.08c0.29,0,0.56-0.16,0.71-0.42
		C22.04,14.08,22.04,13.76,21.89,13.51z M19.28,13.09c-0.45,0-0.82,0.37-0.82,0.84v2.73c0,0.29-0.23,0.53-0.52,0.53h-1.35
		c-0.44,0-0.88-0.09-1.29-0.27c-0.25-0.11-0.53-0.09-0.76,0.05c-0.23,0.14-0.37,0.39-0.39,0.66c-0.05,0.77,0.06,1.63,0.16,2.29H9.9
		c-0.11-1.45-0.45-4.02-1.2-5.17c-0.08-0.12-0.15-0.24-0.23-0.36c-0.18-0.29-0.37-0.59-0.65-0.97c-0.88-1.17-1.29-2.65-1.15-4.15
		c0.24-2.74,2.45-5.06,5.14-5.39c1.72-0.21,3.37,0.31,4.65,1.46c1.27,1.14,1.99,2.78,1.99,4.49v0.76c0,0.15,0.04,0.29,0.11,0.42
		l1.19,2.08H19.28z"/>
</g>
</svg>
