<?xml version="1.0" encoding="utf-8"?>
<!-- Generator: Adobe Illustrator 24.2.1, SVG Export Plug-In . SVG Version: 6.00 Build 0)  -->
<svg version="1.1" id="Layer_1" xmlns="http://www.w3.org/2000/svg" xmlns:xlink="http://www.w3.org/1999/xlink" x="0px" y="0px"
	 viewBox="0 0 24 24" style="enable-background:new 0 0 24 24;" xml:space="preserve">
<style type="text/css">
	.st0{clip-path:url(#SVGID_2_);}
	.st1{fill:#0077C3;}
	.st2{fill:#84CB26;}
</style>
<g>
	<defs>
		<rect id="SVGID_1_" x="2" y="2" width="20" height="20"/>
	</defs>
	<clipPath id="SVGID_2_">
		<use xlink:href="#SVGID_1_"  style="overflow:visible;"/>
	</clipPath>
	<g class="st0">
		<path class="st1" d="M19.08,17.37c-0.01,0-0.02,0-0.03,0.01c-0.09,0.02-0.32,0.07-0.71,0.39c-0.11-0.43-0.39-0.79-0.78-0.99
			c-0.29-0.14-0.61-0.19-0.92-0.13c-0.15,0.03-0.29,0.07-0.43,0.15c-0.55,0.29-1.15,0.49-1.76,0.6c-0.59,0.1-1.19,0.07-1.88,0.04
			l-0.09,0c-0.11-0.01-0.23,0-0.34,0.02c-0.33,0.06-0.64,0.23-0.86,0.48c-0.28,0.32-0.4,0.73-0.36,1.15
			c-0.47-0.16-0.7-0.14-0.79-0.12c-0.01,0-0.02,0-0.03,0.01c-0.58,0.12-0.94,0.69-0.82,1.27c0.12,0.57,0.66,0.93,1.23,0.83
			c0.12-0.02,0.34-0.09,0.69-0.39l0,0.02c0.11,0.65,0.63,1.14,1.28,1.23c0.08,0.01,0.15,0.02,0.23,0.02l0.07,0.01
			c0.84,0.08,1.67,0.05,2.47-0.09c0.81-0.14,1.6-0.4,2.35-0.76l0.06-0.03c0.07-0.03,0.14-0.07,0.21-0.1c0.58-0.3,0.9-0.95,0.79-1.59
			l0-0.02c0.43,0.17,0.65,0.15,0.74,0.14c0,0,0,0,0,0c0.61-0.11,0.99-0.63,0.91-1.2C20.21,17.7,19.67,17.29,19.08,17.37z
			 M10.36,20.26C10.36,20.27,10.35,20.27,10.36,20.26c-0.15,0.03-0.29-0.06-0.32-0.21c-0.03-0.14,0.06-0.29,0.21-0.32c0,0,0,0,0,0
			c0.15-0.03,0.57,0.15,0.57,0.15S10.5,20.23,10.36,20.26z M16.94,19.73c-0.61,0.29-1.27,0.51-1.97,0.64s-1.39,0.14-2.07,0.08
			c-0.08-0.01-0.17-0.01-0.25-0.02l-0.09-0.52l-0.06-0.34l-0.11-0.64c0.78,0.04,1.53,0.09,2.31-0.05c0.79-0.14,1.52-0.39,2.19-0.74
			l0.11,0.64l0.06,0.34l0.09,0.52C17.09,19.66,17.01,19.69,16.94,19.73z M19.28,18.69C19.28,18.69,19.27,18.69,19.28,18.69
			c-0.16,0.02-0.57-0.19-0.57-0.19s0.34-0.31,0.49-0.34c0,0,0,0,0,0c0.15-0.02,0.28,0.08,0.3,0.23
			C19.52,18.53,19.42,18.67,19.28,18.69z M9.01,10.46l0,0.02c0.06,0.65,0.53,1.19,1.17,1.33c0.08,0.02,0.15,0.03,0.23,0.04
			l0.07,0.01c0.83,0.15,1.66,0.2,2.47,0.12s1.63-0.26,2.41-0.55l0.06-0.02c0.07-0.03,0.15-0.05,0.22-0.08
			c0.61-0.25,0.98-0.86,0.92-1.52l0-0.02c0.42,0.21,0.64,0.21,0.73,0.21c0,0,0,0,0,0c0.61-0.05,1.04-0.54,1.01-1.12
			c-0.03-0.59-0.53-1.04-1.12-1.01c-0.01,0-0.02,0-0.03,0c-0.09,0.01-0.32,0.04-0.74,0.32c-0.07-0.43-0.32-0.82-0.69-1.05
			c-0.28-0.17-0.6-0.24-0.91-0.21c-0.15,0.01-0.3,0.05-0.44,0.11c-0.58,0.24-1.18,0.39-1.81,0.44c-0.59,0.05-1.19-0.03-1.88-0.13
			l-0.09-0.01c-0.11-0.02-0.23-0.02-0.34-0.01c-0.33,0.03-0.65,0.17-0.9,0.41c-0.31,0.29-0.47,0.7-0.46,1.12
			c-0.46-0.2-0.69-0.2-0.78-0.19c-0.01,0-0.02,0-0.03,0c-0.58,0.07-1,0.61-0.93,1.19c0.07,0.57,0.58,0.98,1.15,0.93
			C8.41,10.78,8.64,10.74,9.01,10.46z M17.21,8.67C17.22,8.67,17.22,8.67,17.21,8.67c0.15-0.01,0.28,0.1,0.28,0.25
			c0.01,0.14-0.1,0.27-0.24,0.28c0,0-0.01,0-0.01,0C17.1,9.22,16.7,8.97,16.7,8.97S17.06,8.69,17.21,8.67z M12.69,8.98
			c0.79-0.07,1.55-0.26,2.25-0.55l0.06,0.65l0.03,0.35l0.05,0.53c-0.08,0.03-0.16,0.06-0.23,0.09c-0.63,0.24-1.31,0.4-2.02,0.46
			c-0.71,0.06-1.4,0.02-2.07-0.11c-0.08-0.02-0.16-0.03-0.24-0.04l-0.05-0.53l-0.03-0.35l-0.06-0.65
			C11.15,8.94,11.89,9.05,12.69,8.98z M8.22,10c-0.14,0.01-0.27-0.09-0.29-0.23c-0.02-0.15,0.09-0.28,0.23-0.3c0,0,0,0,0,0
			c0.15-0.01,0.56,0.2,0.56,0.2S8.38,9.98,8.22,10C8.23,10,8.23,10,8.22,10z M9.76,15.71c0.09,0.65,0.59,1.16,1.24,1.27
			c0.08,0.01,0.15,0.02,0.23,0.03l0.07,0.01c0.83,0.11,1.66,0.11,2.47,0s1.61-0.34,2.38-0.68l0.06-0.03
			c0.07-0.03,0.14-0.06,0.21-0.09c0.59-0.28,0.93-0.91,0.84-1.56l0-0.02c0.43,0.19,0.65,0.18,0.74,0.17c0,0,0,0,0,0
			c0.61-0.09,1.01-0.6,0.95-1.17c-0.06-0.59-0.59-1.01-1.17-0.95c-0.01,0-0.02,0-0.03,0c-0.09,0.01-0.32,0.06-0.72,0.36
			c-0.09-0.43-0.36-0.8-0.75-1.01c-0.28-0.15-0.61-0.21-0.92-0.16c-0.15,0.02-0.3,0.06-0.44,0.13c-0.56,0.27-1.16,0.45-1.78,0.53
			c-0.59,0.08-1.19,0.03-1.88-0.03l-0.09-0.01c-0.11-0.01-0.23-0.01-0.34,0.01c-0.33,0.05-0.64,0.2-0.88,0.45
			c-0.29,0.31-0.43,0.72-0.4,1.14c-0.47-0.18-0.7-0.16-0.79-0.15c-0.01,0-0.02,0-0.03,0c-0.58,0.1-0.97,0.66-0.87,1.24
			c0.1,0.57,0.63,0.95,1.2,0.87c0.12-0.02,0.34-0.07,0.7-0.37L9.76,15.71z M17.86,13.48C17.86,13.48,17.86,13.48,17.86,13.48
			c0.15-0.02,0.28,0.09,0.3,0.24c0.02,0.14-0.09,0.27-0.23,0.29c0,0-0.01,0-0.01,0c-0.15,0.02-0.56-0.21-0.56-0.21
			S17.71,13.5,17.86,13.48z M13.35,14.02c0.79-0.11,1.53-0.34,2.22-0.67L15.66,14l0.05,0.34l0.07,0.53
			c-0.07,0.04-0.15,0.07-0.23,0.1c-0.62,0.27-1.29,0.47-1.99,0.57c-0.7,0.1-1.4,0.09-2.07,0c-0.08-0.01-0.17-0.02-0.25-0.03
			l-0.07-0.53l-0.05-0.34l-0.09-0.64C11.82,14.06,12.56,14.13,13.35,14.02z M8.96,15.27C8.95,15.27,8.95,15.27,8.96,15.27
			c-0.15,0.02-0.28-0.07-0.31-0.22c-0.03-0.15,0.07-0.28,0.22-0.31c0,0,0,0,0,0c0.15-0.02,0.57,0.17,0.57,0.17S9.1,15.24,8.96,15.27
			z M8.19,5.41c0.12-0.01,0.35-0.03,0.74-0.28l0,0.02C8.94,5.81,9.37,6.38,10,6.56c0.07,0.02,0.15,0.04,0.22,0.06l0.06,0.02
			c0.81,0.21,1.64,0.31,2.46,0.3s1.64-0.14,2.44-0.38l0.06-0.02c0.07-0.02,0.15-0.04,0.22-0.07c0.62-0.21,1.04-0.79,1.02-1.45
			l0-0.02c0.4,0.24,0.62,0.25,0.71,0.26c0,0,0,0,0,0c0.61-0.01,1.07-0.47,1.08-1.05c0.01-0.59-0.46-1.08-1.05-1.09
			c-0.01,0-0.02,0-0.03,0c-0.09,0-0.33,0.02-0.76,0.27c-0.04-0.44-0.26-0.84-0.62-1.1c-0.26-0.19-0.58-0.28-0.89-0.28
			c-0.15,0-0.3,0.03-0.45,0.08c-0.59,0.2-1.21,0.3-1.83,0.31c-0.6,0.01-1.18-0.11-1.87-0.26l-0.09-0.02
			C10.6,2.11,10.49,2.1,10.37,2.1c-0.34,0.01-0.66,0.12-0.93,0.34C9.12,2.71,8.93,3.11,8.91,3.53C8.47,3.29,8.24,3.28,8.14,3.28
			c-0.01,0-0.02,0-0.03,0C7.52,3.31,7.07,3.82,7.1,4.4C7.13,4.98,7.61,5.42,8.19,5.41z M17.23,3.92
			C17.23,3.92,17.24,3.92,17.23,3.92c0.15,0,0.27,0.12,0.27,0.27c0,0.14-0.12,0.26-0.26,0.26c0,0-0.01,0-0.01,0
			c-0.15,0-0.53-0.28-0.53-0.28S17.08,3.93,17.23,3.92z M12.69,3.91c0.8-0.01,1.56-0.15,2.28-0.39l0.01,0.65l0.01,0.35L15,5.05
			c-0.08,0.03-0.16,0.05-0.24,0.07c-0.65,0.19-1.33,0.31-2.04,0.32s-1.4-0.08-2.05-0.25c-0.08-0.02-0.16-0.04-0.24-0.06L10.42,4.6
			l-0.01-0.35L10.4,3.6C11.17,3.76,11.9,3.92,12.69,3.91z M8.15,4.08C8.16,4.08,8.16,4.08,8.15,4.08c0.16,0,0.55,0.24,0.55,0.24
			S8.33,4.61,8.18,4.61c0,0-0.01,0-0.01,0c-0.14,0-0.26-0.11-0.27-0.25C7.89,4.21,8.01,4.09,8.15,4.08z"/>
		<path class="st2" d="M7.6,21.77c-0.02-0.05-2.32-5.21-2.46-11.78l0.56,0.56l0.35-0.35L4.88,9.02L3.7,10.2l0.35,0.35l0.59-0.59
			c0.13,6.69,2.48,11.96,2.51,12.01L7.6,21.77z"/>
	</g>
</g>
</svg>
