<?xml version="1.0" encoding="utf-8"?>
<!-- Generator: Adobe Illustrator 24.2.1, SVG Export Plug-In . SVG Version: 6.00 Build 0)  -->
<svg version="1.1" id="Layer_1" xmlns="http://www.w3.org/2000/svg" xmlns:xlink="http://www.w3.org/1999/xlink" x="0px" y="0px"
	 viewBox="0 0 24 24" style="enable-background:new 0 0 24 24;" xml:space="preserve">
<style type="text/css">
	.st0{clip-path:url(#SVGID_2_);}
	.st1{fill:#0077C3;}
	.st2{fill:#84CB26;}
</style>
<g>
	<defs>
		<rect id="SVGID_1_" x="2" y="2" width="20" height="20"/>
	</defs>
	<clipPath id="SVGID_2_">
		<use xlink:href="#SVGID_1_"  style="overflow:visible;"/>
	</clipPath>
	<g id="back-pain" class="st0">
		<path class="st1" d="M16.42,18.52c-0.01,0-0.02,0-0.03,0c-0.09-0.01-0.33-0.01-0.78,0.2c0-0.44-0.18-0.86-0.52-1.15
			c-0.25-0.21-0.55-0.33-0.87-0.35c-0.15-0.01-0.3,0-0.45,0.04c-0.61,0.14-1.23,0.2-1.85,0.15c-0.59-0.04-1.17-0.22-1.84-0.42
			l-0.09-0.03c-0.11-0.03-0.22-0.05-0.33-0.06c-0.34-0.02-0.67,0.07-0.96,0.26c-0.35,0.24-0.57,0.62-0.63,1.03
			c-0.42-0.27-0.65-0.3-0.74-0.31c-0.01,0-0.02,0-0.03,0c-0.59-0.02-1.08,0.44-1.1,1.03c-0.02,0.58,0.42,1.06,0.99,1.1
			c0.12,0,0.35,0,0.76-0.22l0,0.02c-0.05,0.65,0.34,1.26,0.95,1.5c0.07,0.03,0.14,0.05,0.22,0.08l0.06,0.02
			c0.79,0.28,1.61,0.45,2.42,0.51c0.82,0.06,1.65,0,2.47-0.17l0.07-0.01c0.08-0.01,0.15-0.03,0.23-0.05c0.64-0.15,1.1-0.7,1.15-1.35
			l0-0.02c0.38,0.27,0.6,0.31,0.69,0.32c0,0,0,0,0,0c0.61,0.04,1.11-0.38,1.17-0.95C17.43,19.11,17.01,18.59,16.42,18.52z
			 M7.26,19.22C7.25,19.22,7.25,19.22,7.26,19.22C7.1,19.21,6.99,19.09,7,18.94C7,18.8,7.13,18.68,7.27,18.69c0,0,0,0,0,0
			c0.15,0.01,0.52,0.28,0.52,0.28S7.4,19.22,7.26,19.22z M14.07,19.37l-0.02,0.35l-0.04,0.53c-0.08,0.02-0.16,0.03-0.24,0.05
			c-0.66,0.14-1.35,0.19-2.06,0.14c-0.71-0.05-1.39-0.2-2.02-0.43c-0.08-0.03-0.16-0.05-0.23-0.08l0.04-0.53l0.02-0.35l0.05-0.65
			c0.75,0.23,1.46,0.45,2.26,0.51c0.8,0.06,1.57-0.01,2.31-0.19L14.07,19.37z M16.29,19.85C16.29,19.85,16.28,19.85,16.29,19.85
			c-0.16-0.02-0.51-0.32-0.51-0.32s0.4-0.22,0.55-0.21c0,0,0,0,0,0c0.15,0.02,0.25,0.15,0.24,0.29
			C16.56,19.76,16.43,19.86,16.29,19.85z M6.99,5.24c0.12,0,0.35-0.01,0.75-0.24l0,0.02c-0.02,0.65,0.38,1.25,1,1.47
			c0.07,0.03,0.15,0.05,0.22,0.07l0.06,0.02c0.8,0.25,1.62,0.4,2.44,0.43c0.82,0.03,1.65-0.06,2.46-0.25l0.06-0.01
			c0.08-0.02,0.15-0.03,0.23-0.05c0.63-0.17,1.08-0.74,1.1-1.39l0-0.02c0.39,0.26,0.61,0.29,0.7,0.29c0,0,0,0,0,0
			c0.61,0.02,1.1-0.41,1.14-0.99c0.04-0.59-0.4-1.1-0.99-1.14c-0.01,0-0.02,0-0.03,0c-0.09,0-0.33,0-0.77,0.23
			c-0.01-0.44-0.21-0.85-0.56-1.13c-0.25-0.2-0.56-0.31-0.88-0.32c-0.15-0.01-0.3,0.01-0.45,0.05c-0.6,0.17-1.22,0.24-1.85,0.22
			c-0.59-0.02-1.18-0.18-1.85-0.36L9.68,2.1C9.57,2.07,9.46,2.05,9.35,2.05C9.01,2.04,8.68,2.14,8.4,2.34
			C8.06,2.59,7.86,2.98,7.81,3.39C7.38,3.14,7.15,3.11,7.06,3.11c-0.01,0-0.02,0-0.03,0c-0.59,0-1.07,0.48-1.07,1.07
			C5.96,4.76,6.41,5.22,6.99,5.24z M16.1,4.23C16.1,4.23,16.11,4.23,16.1,4.23c0.15,0.01,0.26,0.14,0.25,0.28
			c-0.01,0.14-0.13,0.25-0.28,0.25c0,0-0.01,0-0.01,0c-0.15-0.01-0.51-0.3-0.51-0.3S15.95,4.22,16.1,4.23z M9.26,4.54L9.27,4.2
			L9.3,3.55c0.76,0.2,1.48,0.4,2.27,0.43s1.57-0.07,2.3-0.27l-0.02,0.65L13.83,4.7l-0.02,0.53c-0.08,0.02-0.16,0.04-0.24,0.06
			c-0.66,0.16-1.35,0.24-2.06,0.21c-0.71-0.02-1.39-0.15-2.04-0.36C9.4,5.12,9.32,5.1,9.24,5.07L9.26,4.54z M7.03,3.91
			C7.03,3.91,7.03,3.91,7.03,3.91c0.16,0.01,0.53,0.27,0.53,0.27S7.17,4.44,7.03,4.44c0,0-0.01,0-0.01,0
			C6.88,4.44,6.76,4.32,6.76,4.18C6.76,4.03,6.88,3.91,7.03,3.91z M7.32,10.56c0.12-0.01,0.35-0.04,0.73-0.31l0,0.02
			c0.03,0.65,0.49,1.21,1.12,1.37c0.07,0.02,0.15,0.04,0.23,0.05l0.06,0.01c0.82,0.18,1.65,0.25,2.47,0.21
			c0.82-0.04,1.63-0.2,2.43-0.47l0.06-0.02c0.07-0.02,0.15-0.05,0.22-0.07c0.61-0.23,1.01-0.83,0.97-1.48l0-0.02
			c0.41,0.22,0.63,0.23,0.72,0.23c0,0,0,0,0,0c0.61-0.03,1.06-0.51,1.05-1.09c-0.01-0.59-0.5-1.06-1.09-1.05c-0.01,0-0.02,0-0.03,0
			c-0.09,0-0.32,0.03-0.75,0.3c-0.05-0.44-0.29-0.83-0.66-1.07c-0.27-0.18-0.59-0.26-0.9-0.24c-0.15,0.01-0.3,0.04-0.45,0.09
			c-0.58,0.22-1.2,0.34-1.82,0.38C11.1,7.43,10.5,7.32,9.82,7.2L9.72,7.19C9.61,7.17,9.5,7.16,9.39,7.17
			C9.05,7.19,8.73,7.32,8.47,7.54c-0.32,0.28-0.49,0.68-0.5,1.1C7.53,8.42,7.29,8.42,7.2,8.43c-0.01,0-0.02,0-0.03,0
			C6.58,8.48,6.15,9,6.2,9.58C6.25,10.16,6.74,10.59,7.32,10.56z M16.3,8.75C16.31,8.75,16.31,8.75,16.3,8.75
			c0.15,0,0.27,0.11,0.28,0.26c0,0.14-0.11,0.26-0.25,0.27c0,0-0.01,0-0.01,0c-0.15,0-0.54-0.26-0.54-0.26S16.15,8.76,16.3,8.75z
			 M11.77,8.9c0.8-0.04,1.56-0.21,2.27-0.47l0.03,0.65l0.02,0.35l0.03,0.53c-0.08,0.03-0.16,0.05-0.24,0.08
			c-0.64,0.22-1.32,0.35-2.03,0.39s-1.4-0.03-2.06-0.18c-0.08-0.02-0.16-0.03-0.24-0.05L9.52,9.66L9.5,9.31L9.46,8.67
			C10.24,8.8,10.97,8.94,11.77,8.9z M7.24,9.22C7.24,9.22,7.24,9.22,7.24,9.22c0.15-0.01,0.55,0.22,0.55,0.22s-0.36,0.3-0.51,0.31
			c0,0-0.01,0-0.01,0c-0.14,0.01-0.27-0.1-0.28-0.24C6.98,9.37,7.09,9.24,7.24,9.22z M9.17,16.52c0.07,0.02,0.15,0.05,0.22,0.07
			l0.06,0.02c0.8,0.24,1.63,0.37,2.44,0.38s1.64-0.09,2.46-0.3l0.06-0.02c0.08-0.02,0.15-0.04,0.22-0.06
			c0.63-0.19,1.06-0.76,1.07-1.41l0-0.02c0.39,0.25,0.61,0.28,0.7,0.28h0c0.61,0.01,1.09-0.43,1.12-1.01
			c0.03-0.59-0.42-1.09-1.01-1.12c-0.01,0-0.02,0-0.03,0c-0.09,0-0.33,0.01-0.77,0.24c-0.02-0.44-0.23-0.85-0.58-1.12
			c-0.26-0.2-0.57-0.3-0.88-0.31c-0.15,0-0.3,0.02-0.45,0.06c-0.6,0.18-1.22,0.26-1.84,0.25c-0.6-0.01-1.18-0.16-1.86-0.32
			l-0.09-0.02c-0.11-0.03-0.22-0.04-0.33-0.04c-0.34-0.01-0.67,0.1-0.94,0.31c-0.33,0.26-0.54,0.64-0.57,1.06
			c-0.43-0.25-0.67-0.27-0.76-0.27c-0.01,0-0.02,0-0.03,0c-0.59,0.01-1.06,0.5-1.05,1.09c0.01,0.58,0.47,1.04,1.05,1.05
			c0.12,0,0.35-0.02,0.75-0.26l0,0.02C8.13,15.72,8.54,16.31,9.17,16.52z M16.49,14.13C16.49,14.13,16.49,14.13,16.49,14.13
			c0.15,0.01,0.26,0.13,0.26,0.28c-0.01,0.14-0.13,0.26-0.27,0.25c0,0-0.01,0-0.01,0c-0.15-0.01-0.52-0.29-0.52-0.29
			S16.33,14.13,16.49,14.13z M9.65,14.56l0.01-0.35l0.01-0.65c0.76,0.19,1.48,0.38,2.28,0.39s1.57-0.1,2.29-0.31l-0.01,0.65
			l-0.01,0.35l-0.01,0.53c-0.08,0.02-0.16,0.04-0.24,0.06c-0.66,0.17-1.34,0.26-2.05,0.25s-1.39-0.13-2.04-0.32
			c-0.08-0.02-0.16-0.04-0.24-0.07L9.65,14.56z M7.42,14.5C7.41,14.51,7.41,14.51,7.42,14.5c-0.15,0-0.27-0.12-0.27-0.26
			c0-0.15,0.11-0.27,0.26-0.27c0,0,0,0,0,0c0.15,0,0.53,0.26,0.53,0.26S7.56,14.5,7.42,14.5z"/>
		<path class="st2" d="M19.64,10.69l0.38,1.43c0.03,0.1,0.11,0.18,0.22,0.19c0.11,0.01,0.21-0.04,0.26-0.13L22,9.59l-0.46-0.26
			l-1.18,2.04l-0.38-1.43c-0.03-0.1-0.11-0.18-0.22-0.19c-0.11-0.01-0.21,0.04-0.26,0.13L18,12.47l0.46,0.26L19.64,10.69z
			 M3.76,12.31c0.11-0.02,0.19-0.09,0.22-0.19l0.38-1.43l1.18,2.04L6,12.47L4.5,9.87C4.45,9.78,4.35,9.73,4.24,9.74
			C4.13,9.76,4.05,9.83,4.02,9.94l-0.38,1.43L2.46,9.32L2,9.59l1.5,2.59C3.55,12.28,3.65,12.33,3.76,12.31z M5.12,14.81
			C5.02,14.83,4.93,14.9,4.91,15l-0.36,1.35l-1.11-1.93L3,14.67l1.41,2.45c0.05,0.09,0.15,0.14,0.25,0.12
			c0.1-0.01,0.18-0.09,0.21-0.18l0.36-1.35l1.11,1.93l0.43-0.25l-1.41-2.45C5.31,14.85,5.22,14.8,5.12,14.81z M19.45,16.35L19.09,15
			c-0.03-0.1-0.11-0.17-0.21-0.18c-0.1-0.01-0.2,0.04-0.25,0.12l-1.41,2.45l0.43,0.25l1.11-1.93l0.36,1.35
			c0.03,0.1,0.11,0.17,0.21,0.18c0.1,0.01,0.2-0.04,0.25-0.12L21,14.67l-0.43-0.25L19.45,16.35z"/>
	</g>
</g>
</svg>
