<?xml version="1.0" encoding="utf-8"?>
<!-- Generator: Adobe Illustrator 24.2.1, SVG Export Plug-In . SVG Version: 6.00 Build 0)  -->
<svg version="1.1" id="Layer_1" xmlns="http://www.w3.org/2000/svg" xmlns:xlink="http://www.w3.org/1999/xlink" x="0px" y="0px"
	 viewBox="0 0 24 24" style="enable-background:new 0 0 24 24;" xml:space="preserve">
<style type="text/css">
	.st0{clip-path:url(#SVGID_2_);}
	.st1{fill:#0077C3;}
	.st2{fill:#84CB26;}
</style>
<g>
	<defs>
		<rect id="SVGID_1_" x="2" y="2" width="20" height="20"/>
	</defs>
	<clipPath id="SVGID_2_">
		<use xlink:href="#SVGID_1_"  style="overflow:visible;"/>
	</clipPath>
	<g class="st0">
		<path class="st1" d="M18.82,17.56c-0.01,0-0.02,0-0.03,0c-0.09,0.01-0.32,0.06-0.72,0.36c-0.09-0.43-0.36-0.8-0.75-1.01
			c-0.28-0.15-0.61-0.21-0.92-0.16c-0.15,0.02-0.3,0.06-0.44,0.13c-0.56,0.27-1.16,0.45-1.78,0.53c-0.59,0.08-1.19,0.03-1.88-0.03
			l-0.09-0.01c-0.11-0.01-0.23-0.01-0.34,0.01c-0.33,0.05-0.64,0.2-0.88,0.45c-0.31,0.33-0.46,0.79-0.4,1.24l0.09,0.64l0.05,0.34
			l0.07,0.53c0.09,0.65,0.59,1.16,1.24,1.27c0.08,0.01,0.15,0.02,0.23,0.03l0.07,0.01c0.83,0.11,1.66,0.11,2.47,0
			c0.81-0.11,1.61-0.34,2.38-0.68l0.06-0.03c0.07-0.03,0.14-0.06,0.21-0.09c0.59-0.28,0.93-0.91,0.84-1.56l0-0.02
			c0.43,0.19,0.65,0.18,0.74,0.17c0,0,0,0,0,0c0.61-0.09,1.01-0.6,0.95-1.17C19.93,17.92,19.41,17.5,18.82,17.56z M16.6,19.84
			c-0.62,0.27-1.29,0.47-1.99,0.57s-1.4,0.09-2.07,0c-0.08-0.01-0.17-0.02-0.25-0.03l-0.07-0.53l-0.05-0.34l-0.09-0.64
			c0.78,0.07,1.53,0.14,2.31,0.03c0.79-0.11,1.53-0.34,2.22-0.67l0.09,0.64l0.05,0.34l0.07,0.53C16.75,19.78,16.67,19.81,16.6,19.84
			z M18.97,18.88C18.97,18.88,18.96,18.88,18.97,18.88c-0.16,0.02-0.57-0.21-0.57-0.21s0.35-0.3,0.5-0.32c0,0,0,0,0,0
			c0.15-0.02,0.28,0.09,0.29,0.24C19.21,18.74,19.11,18.86,18.97,18.88z M10.47,11.43c0.07,0.03,0.14,0.06,0.22,0.09l0.06,0.02
			c0.78,0.31,1.59,0.51,2.4,0.59c0.81,0.09,1.65,0.06,2.47-0.08l0.07-0.01c0.08-0.01,0.15-0.02,0.23-0.04
			c0.64-0.13,1.13-0.66,1.19-1.31l0-0.02c0.37,0.28,0.59,0.33,0.68,0.34c0,0,0,0,0,0c0.61,0.06,1.12-0.34,1.2-0.91
			c0.08-0.58-0.33-1.12-0.91-1.2c-0.01,0-0.02,0-0.03,0c-0.09-0.01-0.33-0.02-0.78,0.18c0.02-0.44-0.15-0.87-0.48-1.16
			c-0.24-0.22-0.54-0.35-0.85-0.38c-0.15-0.02-0.3-0.01-0.45,0.02c-0.61,0.12-1.24,0.15-1.86,0.09c-0.59-0.06-1.16-0.26-1.82-0.48
			l-0.09-0.03c-0.11-0.04-0.22-0.06-0.33-0.07c-0.33-0.04-0.67,0.04-0.96,0.23c-0.39,0.25-0.64,0.65-0.69,1.11L9.66,9.02L9.63,9.37
			L9.57,9.89C9.5,10.55,9.87,11.17,10.47,11.43z M17.97,9.69C17.97,9.69,17.97,9.69,17.97,9.69c0.15,0.02,0.25,0.16,0.23,0.3
			c-0.02,0.14-0.15,0.24-0.29,0.23c0,0-0.01,0-0.01,0c-0.15-0.02-0.49-0.34-0.49-0.34S17.82,9.67,17.97,9.69z M11.12,9.52l0.04-0.35
			l0.07-0.64c0.74,0.25,1.45,0.5,2.24,0.59s1.57,0.04,2.31-0.11l-0.07,0.64L15.67,10l-0.06,0.53c-0.08,0.02-0.16,0.03-0.25,0.04
			c-0.67,0.11-1.36,0.14-2.07,0.07c-0.71-0.07-1.38-0.25-2.01-0.5c-0.08-0.03-0.16-0.06-0.23-0.09L11.12,9.52z M11.38,6.35
			c0.07,0.04,0.14,0.07,0.21,0.1l0.06,0.03c0.76,0.36,1.55,0.62,2.35,0.76c0.81,0.14,1.64,0.17,2.47,0.09l0.07-0.01
			c0.08-0.01,0.15-0.01,0.23-0.02c0.65-0.09,1.17-0.58,1.28-1.23l0-0.02c0.35,0.31,0.56,0.37,0.65,0.39c0,0,0,0,0,0
			c0.61,0.11,1.14-0.26,1.26-0.82c0.12-0.58-0.25-1.14-0.82-1.27c-0.01,0-0.02,0-0.03-0.01c-0.09-0.02-0.32-0.04-0.79,0.12
			c0.05-0.44-0.09-0.88-0.4-1.2c-0.22-0.23-0.51-0.39-0.82-0.44c-0.15-0.03-0.3-0.03-0.45-0.01c-0.62,0.08-1.24,0.07-1.86-0.04
			c-0.59-0.1-1.14-0.34-1.78-0.61l-0.09-0.04c-0.11-0.04-0.21-0.08-0.32-0.1c-0.33-0.06-0.68,0-0.98,0.16
			c-0.4,0.22-0.68,0.61-0.76,1.06L10.75,3.9l-0.06,0.34L10.6,4.76C10.48,5.41,10.8,6.05,11.38,6.35z M18.98,5.14
			C18.99,5.14,18.99,5.14,18.98,5.14c0.15,0.03,0.24,0.17,0.21,0.32c-0.03,0.14-0.17,0.23-0.31,0.21c0,0-0.01,0-0.01,0
			c-0.14-0.03-0.47-0.37-0.47-0.37S18.84,5.12,18.98,5.14z M12.17,4.5l0.06-0.34l0.11-0.64c0.72,0.3,1.41,0.6,2.19,0.74
			c0.79,0.14,1.56,0.15,2.31,0.05l-0.11,0.64L16.67,5.3l-0.09,0.52c-0.08,0.01-0.17,0.01-0.25,0.02c-0.67,0.07-1.37,0.05-2.07-0.08
			s-1.36-0.34-1.97-0.64c-0.07-0.04-0.15-0.07-0.22-0.11L12.17,4.5z M11.02,16.94l0.06,0.01c0.82,0.18,1.65,0.25,2.47,0.21
			c0.82-0.04,1.63-0.2,2.43-0.47l0.06-0.02c0.07-0.02,0.15-0.05,0.22-0.07c0.61-0.23,1.01-0.83,0.97-1.48l0-0.02
			c0.41,0.22,0.63,0.23,0.72,0.23c0,0,0,0,0,0c0.61-0.03,1.06-0.51,1.05-1.09c-0.01-0.59-0.5-1.06-1.09-1.05c-0.01,0-0.02,0-0.03,0
			c-0.09,0-0.32,0.03-0.75,0.3c-0.05-0.44-0.29-0.83-0.66-1.07c-0.27-0.18-0.59-0.26-0.9-0.24c-0.15,0.01-0.3,0.04-0.45,0.09
			c-0.58,0.22-1.2,0.34-1.82,0.38c-0.59,0.03-1.19-0.07-1.87-0.19l-0.09-0.02c-0.11-0.02-0.23-0.03-0.34-0.02
			c-0.34,0.02-0.66,0.15-0.92,0.38c-0.34,0.3-0.53,0.75-0.5,1.2l0.03,0.65l0.02,0.35l0.03,0.53c0.03,0.65,0.49,1.21,1.12,1.37
			C10.86,16.91,10.94,16.93,11.02,16.94z M17.92,14C17.93,14,17.93,14,17.92,14c0.15,0,0.27,0.11,0.28,0.26
			c0,0.14-0.11,0.26-0.25,0.27c0,0-0.01,0-0.01,0c-0.15,0-0.54-0.26-0.54-0.26S17.77,14.01,17.92,14z M13.39,14.15
			c0.8-0.04,1.56-0.21,2.27-0.47l0.03,0.65l0.02,0.35l0.03,0.53c-0.08,0.03-0.16,0.05-0.24,0.08c-0.64,0.22-1.32,0.35-2.03,0.39
			c-0.71,0.04-1.4-0.03-2.06-0.18c-0.08-0.02-0.16-0.03-0.24-0.05l-0.03-0.53l-0.02-0.35l-0.03-0.65
			C11.85,14.05,12.59,14.19,13.39,14.15z"/>
		<path class="st2" d="M7.93,14.16l0.35-0.35l-1.57-1.57h1.4c0.1,0,0.19-0.06,0.23-0.15c0.04-0.09,0.02-0.2-0.05-0.27l-2-2
			l-0.35,0.35l1.57,1.57H6.1c-0.1,0-0.19,0.06-0.23,0.15c-0.04,0.09-0.02,0.2,0.05,0.27L7.93,14.16z M8,15.8l-1.57,1.57v-1.4
			c0-0.1-0.06-0.19-0.15-0.23C6.18,15.71,6.07,15.73,6,15.8l-2,2l0.35,0.35l1.57-1.57v1.4c0,0.1,0.06,0.19,0.15,0.23
			c0.09,0.04,0.2,0.02,0.27-0.05l2-2L8,15.8z"/>
	</g>
</g>
</svg>
