<?xml version="1.0" encoding="utf-8"?>
<!-- Generator: Adobe Illustrator 24.2.0, SVG Export Plug-In . SVG Version: 6.00 Build 0)  -->
<svg version="1.1" id="Capa_1" xmlns="http://www.w3.org/2000/svg" xmlns:xlink="http://www.w3.org/1999/xlink" x="0px" y="0px"
	 viewBox="0 0 100 100" style="enable-background:new 0 0 100 100;" xml:space="preserve">
<style type="text/css">
	.st0{fill:#0077C3;}
	.st1{fill:#0076C3;}
	.st2{fill:#0072BB;}
	.st3{fill:#85CB26;}
	.st4{fill:#84CB26;}
</style>
<g>
	<path class="st0" d="M54.9,61.6c1.7-2.5,5.2-2,6.2,0c0.2-0.2,0.4-0.4,0.6-0.6c1.3-1.1,2.8-1.4,4.3-0.9c1.2,0.4,1.8,1.3,2.1,2.5
		c0.1,0.4,0.1,0.8,0.1,1.3c0,2.3,0,4.5,0,6.8c0,0.2,0,0.2-0.2,0.2c-0.9,0-1.8,0-2.6,0c-0.2,0-0.2,0-0.2-0.2c0-2,0-4,0-6
		c0-0.2,0-0.5-0.1-0.7c-0.2-0.9-1-1.4-1.9-1.3c-0.9,0.1-1.5,0.7-1.6,1.7c0,0.2,0,0.5,0,0.7c0,1.8,0,3.7,0,5.5c0,0.2-0.1,0.2-0.3,0.2
		c-0.8,0-1.7,0-2.5,0c-0.2,0-0.3,0-0.3-0.3c0-1.9,0-3.7,0-5.6c0-0.3,0-0.7-0.1-1c-0.2-0.9-0.8-1.3-1.7-1.3c-0.9,0-1.5,0.5-1.7,1.4
		c-0.1,0.3-0.1,0.6-0.1,0.9c0,1.9,0,3.8,0,5.7c0,0.2,0,0.2-0.2,0.2c-0.9,0-1.7,0-2.6,0c-0.2,0-0.2-0.1-0.2-0.2c0-3.5,0-6.9,0-10.4
		c0-0.2,0-0.2,0.2-0.2c0.9,0,1.8,0,2.7,0c0.2,0,0.2,0,0.2,0.2C54.9,60.7,54.9,61.2,54.9,61.6z"/>
	<path class="st1" d="M9.4,45.2c0,0.1,0,0.2-0.1,0.3c-0.3,1.1-0.7,2.1-0.8,3.2c0,0.3,0,0.7,0,1c0.1,1.2,0.8,2.1,1.9,2.5
		c1,0.4,2.1,0.6,3.2,0.7c2.3,0.2,4.7,0.3,7,0.2c2.4-0.1,4.8-0.3,7.3-0.6c1.8-0.2,3.7-0.4,5.5-0.6c1.8-0.2,3.5-0.4,5.3-0.5
		c3.2-0.2,6.3-0.3,9.5-0.2c0.2,0,0.5,0,0.7,0c0.2,0,0.4,0.1,0.6,0.1c0,0.1-0.1,0-0.1,0c-1.9,0-3.9,0.1-5.8,0.3
		c-1.9,0.2-3.8,0.4-5.7,0.7c-3.8,0.6-7.6,1.4-11.4,2.1c-2.8,0.5-5.5,0.9-8.3,1.1c-2,0.1-4.1,0.2-6.1,0c-1.5-0.1-2.9-0.3-4.3-0.8
		c-0.4-0.2-0.8-0.4-1.2-0.6c-1.1-0.8-1.6-2-1.3-3.3c0.2-1.1,0.8-2,1.5-2.9c0.8-1,1.7-1.9,2.7-2.8C9.3,45.2,9.3,45.1,9.4,45.2z"/>
	<path class="st1" d="M8.2,64c0.7-0.7,1.3-1.4,1.9-2.1c0.5-0.6,1-1.1,1.6-1.7c0.1-0.1,0.1-0.1,0.2-0.1c1.1,0,2.3,0,3.4,0
		c0,0,0,0,0.1,0c-0.3,0.3-0.5,0.5-0.7,0.7c-1.1,1.1-2.2,2.2-3.2,3.3c-0.1,0.1-0.1,0.2,0,0.3c1.3,2.1,2.7,4.1,4,6.2
		c0,0.1,0.1,0.1,0.1,0.2c-0.3,0-0.6,0-0.9,0c-0.8,0-1.6,0-2.4,0c-0.2,0-0.3-0.1-0.4-0.2c-0.8-1.3-1.7-2.6-2.5-4
		c0-0.1-0.1-0.2-0.2-0.2c-0.3,0.3-0.6,0.7-1,1c-0.1,0.1-0.1,0.2-0.1,0.3c0,1,0,1.9,0,2.9c0,0.2,0,0.2-0.2,0.2c-0.9,0-1.8,0-2.7,0
		c-0.1,0-0.2,0-0.2-0.2c0-4.8,0-9.6,0-14.3c0-0.2,0-0.2,0.2-0.2c0.9,0,1.8,0,2.7,0c0.2,0,0.2,0.1,0.2,0.2c0,2.4,0,4.9,0,7.3
		C8.2,63.8,8.2,63.9,8.2,64z"/>
	<path class="st0" d="M74.8,61.6c0.4-0.6,0.9-1,1.5-1.3c1.3-0.7,3.9-0.6,4.9,1.4c0.3,0.6,0.5,1.3,0.5,2c0,2.3,0,4.7,0,7
		c0,0.2,0,0.2-0.2,0.2c-0.9,0-1.8,0-2.6,0c-0.2,0-0.2,0-0.2-0.2c0-1.9,0-3.8,0-5.7c0-0.3,0-0.6-0.1-0.9c-0.2-1-1-1.6-2.1-1.4
		c-1,0.1-1.6,0.8-1.6,1.9c0,1.1,0,2.3,0,3.4c0,0.9,0,1.7,0,2.6c0,0.2,0,0.2-0.2,0.2c-0.9,0-1.8,0-2.7,0c-0.1,0-0.2,0-0.2-0.2
		c0-3.5,0-7,0-10.4c0-0.1,0-0.2,0.2-0.2c0.9,0,1.8,0,2.7,0c0.2,0,0.2,0.1,0.2,0.2C74.8,60.7,74.8,61.2,74.8,61.6z"/>
	<path class="st0" d="M38.3,60.2c0-0.1,0.1-0.1,0.2-0.1c0.6,0,2.4,0,2.5,0c0.4,0,0.4,0,0.4,0.4c0,1.9,0,3.9,0,5.8
		c0,0.5,0.1,1.1,0.5,1.5c0.5,0.6,1.2,0.6,1.9,0.5c0.7-0.2,1.1-0.7,1.3-1.4c0.1-0.3,0.1-0.6,0.1-0.8c0-1.9,0-3.8,0-5.7
		c0-0.2,0-0.2,0.2-0.2c0.9,0,1.7,0,2.6,0c0.2,0,0.2,0,0.2,0.2c0,3.5,0,6.9,0,10.4c0,0.1,0,0.2-0.2,0.2c-0.9,0-1.8,0-2.7,0
		c-0.2,0-0.2-0.1-0.2-0.2c0-0.4,0-0.8,0-1.3c-0.1,0-0.1,0.1-0.2,0.2c-0.6,0.7-1.4,1.3-2.3,1.4c-1.5,0.2-3-0.2-3.8-1.7
		c-0.4-0.7-0.5-1.4-0.5-2.2c0-2.3,0-4.5,0-6.8C38.4,60.4,38.3,60.3,38.3,60.2z"/>
	<path class="st0" d="M31.7,60.2c0-1.2,0-2.5,0-3.7c0-0.2,0-0.3,0.3-0.3c0.9,0,1.7,0,2.6,0c0.2,0,0.2,0.1,0.2,0.2c0,1.3,0,2.6,0,3.9
		c0,0.1,0,0.2,0,0.3c0,3.4,0,6.7,0,10.1c0,0.2,0,0.3-0.2,0.3c-0.9,0-1.7,0-2.6,0c-0.2,0-0.2,0-0.2-0.2c0-3.4,0-6.8,0-10.2
		C31.7,60.4,31.7,60.3,31.7,60.2z"/>
	<path class="st2" d="M57.9,46c0,1.3-1,2.1-2,2.2c-1.5,0.1-2.2-1.1-2.3-2c-0.1-1.3,0.9-2.2,2.1-2.3C57,43.9,58,44.9,57.9,46z"/>
	<path class="st2" d="M52.9,44.6c0,1.2-1.1,1.9-2,1.8c-1-0.1-1.9-1-1.7-2.1c0.1-0.9,1-1.7,2-1.6C52.2,42.8,52.9,43.7,52.9,44.6z"/>
	<path class="st2" d="M48.4,43.2c0,1.1-0.9,1.7-1.7,1.7c-1,0-1.7-0.8-1.6-1.8c0.1-0.9,0.7-1.5,1.6-1.5
		C47.7,41.6,48.4,42.3,48.4,43.2z"/>
	<path class="st2" d="M62.3,45.8c-0.1,0.9-0.9,1.6-1.8,1.5c-0.9-0.1-1.5-0.8-1.5-1.6c0-1,0.9-1.7,1.7-1.6
		C61.7,44.1,62.3,44.9,62.3,45.8z"/>
	<path class="st2" d="M41.6,42.1c0-1,0.8-1.5,1.4-1.4c0.7,0,1.4,0.7,1.4,1.5c0,0.7-0.7,1.4-1.4,1.4C42.2,43.4,41.5,42.8,41.6,42.1z"
		/>
	<path class="st2" d="M40.6,41.7c0,0.7-0.5,1.3-1.1,1.3c-0.8,0-1.2-0.6-1.3-1.2c0-0.7,0.6-1.2,1.3-1.2C40,40.5,40.6,41,40.6,41.7z"
		/>
	<path class="st0" d="M30,44.9c-0.2,0.3-0.3,0.6-0.5,0.9c-0.5,1.3-0.3,2.4,0.6,3.4c0.4,0.5,0.9,0.9,1.4,1.3c0.1,0.1,0.1,0.1,0.1,0.2
		c-0.6-0.2-1.1-0.5-1.7-0.8c-1.1-0.8-1.6-1.8-1.5-3.1c0.1-0.9,0.5-1.6,1.4-1.9C29.9,44.9,29.9,44.9,30,44.9
		C29.9,44.9,29.9,44.9,30,44.9z"/>
	<path class="st2" d="M64.2,42.9c0.5,0,1.1,0.6,1,1.2c0,0.6-0.5,1.1-1.2,1c-0.5,0-1.1-0.7-1-1.2C63.1,43.3,63.6,42.8,64.2,42.9z"/>
	<path class="st2" d="M37.2,42c-0.1,0.6-0.5,1.1-1.2,1c-0.5,0-1-0.6-1-1.1c0-0.6,0.5-1.1,1.1-1.1C36.7,40.9,37.2,41.5,37.2,42z"/>
	<path class="st2" d="M27.2,41.4c0.5,0,1,0.6,1,1.1c0,0.6-0.6,1.1-1,1.1c-0.7,0-1.1-0.5-1.1-1.1C26.1,41.9,26.5,41.4,27.2,41.4z"/>
	<path class="st2" d="M31.1,42.8c0,0.6-0.6,1-1,1c-0.5,0-1-0.5-0.9-1c0-0.6,0.5-1,1-1C30.7,41.8,31.1,42.3,31.1,42.8z"/>
	<path class="st2" d="M32.1,42.5c0-0.5,0.5-0.9,1-0.9c0.5,0,1,0.5,0.9,1c0,0.6-0.5,1-1,1C32.5,43.5,32,43,32.1,42.5z"/>
	<path class="st2" d="M66.5,44.5c-0.1-0.4,0.3-0.8,0.8-0.8c0.4,0,0.7,0.4,0.8,0.8c0,0.4-0.4,0.8-0.8,0.8
		C67,45.3,66.5,44.9,66.5,44.5z"/>
	<g>
		<path class="st3" d="M64.8,41.6c0-0.4-0.3-1.6-0.5-2c0-0.1-0.1-0.1-0.2-0.2c-0.1-0.1-0.1-0.2-0.2-0.1c-0.1,0-0.1,0.2-0.1,0.2
			c0,0.4,0,0.8,0.1,1.2c0.1,0.4,0.3,0.7,0.6,1c0.1,0.1,0.1,0.1,0.2,0.1C64.8,41.8,64.8,41.7,64.8,41.6z"/>
		<path class="st3" d="M68.2,41.7c-0.1-0.2-0.2-0.5-0.4-0.7c-0.8-1.1-1.8-2.1-2.8-3c-0.9-0.9-2-1.4-3.3-1.6
			c-1.2-0.2-2.4-0.3-3.6-0.5c-0.9-0.1-1.8-0.3-2.7-0.7c-1.2-0.5-2.1-1.3-2.5-2.6c0,0,0-0.1-0.1,0c0,0,0,0,0,0c0,0.2,0,0.3,0,0.5
			c0,1.3,0.1,2.5,0.5,3.7c0.6,1.9,1.9,3,3.8,3.5c1.5,0.3,3.1,0.4,4.6,0.2c0.3,0,0.7-0.1,1-0.3c0.3-0.2,0.3-0.4,0-0.5
			c-0.3-0.2-0.5-0.2-0.8-0.2c-0.6-0.1-1.3,0-1.9,0c-0.4,0-0.8-0.1-1.1-0.3c-0.3-0.2-0.3-0.5,0-0.7c0.2-0.1,0.3-0.2,0.5-0.3
			c1.1-0.3,2.1-0.2,3.2,0.2c0.8,0.3,1.3,0.9,1.9,1.3h0c0.4,0.3,1.6,1.3,1.8,1.5c0.3,0.2,0.5,0.4,0.8,0.6c0.3,0.2,0.5,0.2,0.9,0.2
			C68.2,42,68.3,41.9,68.2,41.7z"/>
		<path class="st3" d="M66.6,42.3c-0.2-0.6-0.4-1.1-0.9-1.5c-0.4-0.3-1.1-1-1.2-0.9c-0.1,0.1,0.4,1.2,0.6,1.7
			c0.2,0.5,0.6,0.9,1.1,1.2c0.1,0.1,0.2,0.1,0.3,0c0.1-0.1,0.1-0.2,0.1-0.3C66.7,42.5,66.7,42.4,66.6,42.3z"/>
	</g>
	<g>
		<path class="st4" d="M29.4,39.4c0,0.1,0,0.2,0.1,0.2c0.1,0,0.2-0.1,0.2-0.1c0.3-0.3,0.5-0.7,0.5-1.1c0-0.4,0-0.8-0.1-1.2
			c0-0.1,0-0.2-0.1-0.2c-0.1,0-0.1,0.1-0.2,0.2c-0.1,0.1-0.1,0.1-0.1,0.2C29.5,37.8,29.4,39,29.4,39.4z"/>
		<path class="st4" d="M25.9,39.9c0.1-0.3,0.2-0.5,0.3-0.7c0.7-1.2,1.5-2.3,2.4-3.4c0.8-1,1.8-1.7,3.1-2.1c1.2-0.4,2.3-0.6,3.5-0.9
			c0.9-0.3,1.8-0.5,2.6-1c1.1-0.7,1.9-1.6,2.2-2.9c0,0,0-0.1,0.1-0.1c0,0,0,0,0,0c0,0.2,0,0.3,0.1,0.5c0.2,1.3,0.2,2.5,0,3.8
			c-0.4,1.9-1.5,3.3-3.4,4c-1.5,0.5-3.1,0.8-4.6,0.8c-0.3,0-0.7,0-1-0.1c-0.3-0.1-0.3-0.3-0.1-0.5c0.2-0.2,0.5-0.3,0.8-0.4
			c0.6-0.2,1.3-0.2,1.9-0.3c0.4-0.1,0.8-0.2,1.1-0.4c0.3-0.2,0.3-0.6-0.1-0.7c-0.2-0.1-0.4-0.2-0.6-0.2c-1.1-0.2-2.2,0.1-3.1,0.6
			c-0.7,0.4-1.2,1-1.8,1.6l0,0c-0.4,0.3-1.4,1.5-1.6,1.7c-0.2,0.2-0.5,0.5-0.7,0.7c-0.2,0.2-0.5,0.3-0.8,0.3
			C26,40.2,25.9,40.1,25.9,39.9z"/>
		<path class="st4" d="M27.6,40.6c0-0.1,0-0.2,0-0.3c0.1-0.6,0.3-1.2,0.7-1.6c0.3-0.4,1-1.1,1.1-1c0.1,0.1-0.3,1.3-0.4,1.8
			c-0.2,0.6-0.5,1-1,1.3c-0.1,0.1-0.2,0.1-0.3,0.1C27.6,40.8,27.6,40.7,27.6,40.6z"/>
	</g>
	<path class="st1" d="M95,42.4c-0.1-0.1-0.2-0.1-0.3-0.1c-1.2-0.3-2.5-0.6-3.7-0.9c-1.4-0.3-2.7-0.6-4.1-0.7c-1.3-0.1-2.7-0.2-4-0.3
		c-1.9-0.1-3.9,0.1-5.8,0.6c-2.8,0.7-5.5,1.7-8.3,2.5c-0.1,0-0.1,0.1-0.1,0.2c0.1,0.2,0.2,0.4,0.2,0.7c0,0.2,0.1,0.2,0.3,0.2
		c1.7-0.5,3.3-1,5-1.5c2-0.6,4.1-0.9,6.2-1.1c1.7-0.1,3.5-0.2,5.3-0.2c2,0,3.9,0.2,5.8,0.3c0.9,0.1,1.9,0.2,2.8,0.2c0,0,0.1,0,0.1,0
		C94.6,42.4,94.8,42.4,95,42.4z"/>
	<path class="st2" d="M25.7,41.4c-0.2-0.4-0.3-0.8-0.5-1.2c-1.3-2.6-3.4-4.1-6.4-4.4c-1.2-0.1-2.4,0.1-3.6,0.7
		c-3.4,1.6-5.2,5.3-4.2,8.9c0.4,1.6,1.2,2.9,2.4,4c0.1,0.1,0.3,0.2,0.4,0.4c0.1,0,0.1,0.1,0.2,0.1c0,0,0,0,0,0
		c0.1,0.1,0.1,0.1,0.2,0.1c-0.1-0.1-0.1-0.1-0.2-0.2c0,0,0,0,0,0l0,0c-0.1,0-0.1-0.1-0.2-0.1v0c-0.1-0.1-0.3-0.3-0.4-0.4
		c0,0,0-0.1-0.1-0.1c-1.3-1.5-1.9-3.3-1.8-5.3c0.3-3,1.8-5,4.6-6.1c1.5-0.6,3.1-0.6,4.6,0c1.1,0.5,2,1.4,2.8,2.3
		c0.5,0.6,0.9,1.3,1.4,2c0.1,0.1,0.1,0.1,0.2,0c0.2-0.2,0.3-0.4,0.5-0.7C25.7,41.5,25.7,41.5,25.7,41.4z"/>
	<path class="st4" d="M93.7,49.7c-0.3-0.2-0.6-0.4-0.9-0.5c-0.9-0.4-1.9-0.5-3-0.6c-1.3-0.1-2.7-0.1-4-0.1c-1.6,0-3.1,0.1-4.6,0.2
		c-1.8,0.2-3.5,0.3-5.3,0.6c-1.8,0.2-3.6,0.5-5.4,0.7c-2.2,0.3-4.3,0.7-6.5,1c-2.8,0.5-5.5,1-8.3,1.5c-2.3,0.4-4.6,0.8-6.9,1.2
		c-1.9,0.3-3.8,0.6-5.7,0.9c-1.7,0.2-3.3,0.5-5,0.7c-1.5,0.2-3,0.4-4.5,0.5c-1.5,0.2-3.1,0.3-4.6,0.4c-1.7,0.1-3.4,0.2-5.2,0.3
		c-2.4,0.1-4.9,0-7.3-0.2c-0.2,0-0.4,0-0.6,0c4.9,2.5,10.2,3.6,15.7,3.9c0.1-0.1,0.1-0.2,0.1-0.4c0-1.1,0-2.2,0-3.2
		c0-0.3,0-0.3,0.3-0.3c0.8,0,1.5,0,2.3,0c0.3,0,0.3,0,0.3,0.3c0,1.1,0,2.2,0,3.3c0,0.1,0,0.3,0.1,0.4c1.2,0,2.4,0,3.6-0.1
		c0.1,0,2.8-0.1,2.9-0.1c2.2-0.2,4.4-0.5,6.5-0.8c3.6-0.6,7.1-1.3,10.6-2.2c5.1-1.3,10.1-2.6,15.3-3.5c3.4-0.7,6.8-1.3,10.3-1.4
		c1.1-0.1,2.3-0.1,3.4,0.1c0.6,0.1,1.1,0.2,1.6,0.5c0.5,0.3,0.7,0.8,0.5,1.4c-0.2,0.6-0.6,1.2-1,1.6c-0.7,0.8-1.4,1.4-2.2,2.1
		c-0.1,0-0.1,0.1-0.2,0.1v0c-0.1,0-0.1,0-0.1,0.1c0.1,0,0.1,0,0.2-0.1c0,0,0,0,0,0c0.1,0,0.1-0.1,0.2-0.1c0,0,0,0,0,0c0,0,0,0,0.1,0
		c1.7-1,3.4-2,4.9-3.2c0.9-0.7,1.7-1.4,2.3-2.3c0.3-0.3,0.5-0.7,0.6-1.1C94.4,50.6,94.2,50.1,93.7,49.7z"/>
	<path class="st0" d="M28.5,65.4c-0.1-1.7-0.7-3.1-2-4.1c-1.6-1.3-3.4-1.6-5.4-1.1c-3.6,0.9-5.4,5-3.5,8.2c1.1,1.9,2.9,2.7,5.1,2.8
		c0.4,0,0.7,0,1.1-0.1C26.7,70.6,28.6,68.1,28.5,65.4z M24.5,67.9c-0.5,0.4-1.1,0.6-1.8,0.6c-1.4,0-2.6-1-2.8-2.5
		c-0.1-0.8,0-1.6,0.5-2.3c0.6-0.9,1.5-1.3,2.6-1.2c1.1,0.1,1.9,0.7,2.3,1.8C25.8,65.6,25.4,67.1,24.5,67.9z"/>
	<path class="st0" d="M94.4,64.7c0-0.4,0-0.7-0.1-1.1c-0.2-1.8-1.3-3-3-3.4c-2-0.4-3.9-0.2-5.8,0.6c-0.1,0.1-0.1,0.1-0.1,0.2
		c0.2,0.7,0.4,1.3,0.6,2c0.1,0.2,0.1,0.2,0.3,0.1c0.9-0.4,1.9-0.5,2.9-0.5c0.4,0,0.9,0.1,1.3,0.3c0.7,0.3,0.9,0.9,0.9,1.6
		c0,0.2,0,0.2-0.2,0.2c-1.3-0.4-2.6-0.5-3.9-0.2c-0.8,0.2-1.5,0.5-2.1,1.1c-0.6,0.7-0.8,1.6-0.8,2.5c0.1,1,0.5,1.9,1.4,2.4
		c1.3,0.8,2.7,0.8,4.2,0.3c0.5-0.2,1-0.6,1.4-1c0,0.3,0,0.7,0,1c0,0.2,0,0.2,0.2,0.2c0.8,0,1.7,0,2.5,0c0.2,0,0.2,0,0.2-0.2
		C94.4,68.7,94.4,66.7,94.4,64.7z M91.5,66.7c0,0.2,0,0.5,0,0.7c-0.2,0.8-0.8,1.3-1.7,1.5c-0.2,0-0.4,0.1-0.6,0
		c-0.3,0-0.6,0-0.9-0.1c-0.5-0.2-0.8-0.5-0.8-1c-0.1-0.6,0.1-1,0.6-1.3c0.4-0.3,0.9-0.3,1.4-0.3c0.7,0,1.3,0.1,1.9,0.3
		C91.4,66.5,91.5,66.6,91.5,66.7z"/>
</g>
</svg>
