<?xml version="1.0" encoding="utf-8"?>
<!-- Generator: Adobe Illustrator 24.2.1, SVG Export Plug-In . SVG Version: 6.00 Build 0)  -->
<svg version="1.1" id="Layer_1" xmlns="http://www.w3.org/2000/svg" xmlns:xlink="http://www.w3.org/1999/xlink" x="0px" y="0px"
	 viewBox="0 0 250 150" style="enable-background:new 0 0 250 150;" xml:space="preserve">
<style type="text/css">
	.st0{fill:#84CB26;}
	.st1{fill:#0077C3;}
</style>
<g>
	<path class="st0" d="M161.26,59.1c0.22,0.12,0.43,0.21,0.68,0.05c0.27-0.17,0.22-0.41,0.19-0.65c-0.03-0.21-0.08-0.41-0.14-0.62
		c-0.39-1.3-0.89-2.54-2.02-3.41c-0.82-0.67-1.63-1.35-2.49-2.06c0,0-0.01,0-0.01,0c0,0-0.01,0.01-0.01,0.01c0,0.17,0,0.27,0,0.37
		c0,0,0,0,0,0c0.36,1.25,0.8,2.46,1.33,3.65C159.31,57.61,160.13,58.5,161.26,59.1z M141.04,53.41c3.42,0.74,6.86,0.81,10.32,0.42
		c0.76-0.08,1.52-0.21,2.2-0.58c0.63-0.34,0.64-0.79,0.02-1.16c-0.57-0.35-1.21-0.47-1.85-0.54c-1.39-0.16-2.79-0.03-4.19-0.09
		c-0.85-0.04-1.68-0.16-2.44-0.58c-0.7-0.38-0.73-1.16-0.06-1.6c0.37-0.24,0.76-0.43,1.19-0.56c2.4-0.76,4.73-0.33,7,0.53
		c1.67,0.63,2.93,1.9,4.3,2.99l0,0c0.89,0.66,1.75,1.36,2.57,2.11c0,0,0,0,0,0c0.49,0.39,0.99,0.79,1.49,1.18
		c0.58,0.45,1.17,0.88,1.73,1.35c0.57,0.47,1.22,0.53,1.89,0.37c0.3-0.07,0.52-0.27,0.33-0.65c-0.26-0.53-0.55-1.03-0.9-1.5
		c-1.81-2.46-3.94-4.61-6.17-6.69c-2.07-1.93-4.46-3.14-7.24-3.65c-2.62-0.48-5.28-0.73-7.91-1.11c-2.06-0.3-4.1-0.7-6.03-1.52
		c-2.65-1.13-4.6-2.95-5.63-5.68c-0.02-0.06-0.06-0.12-0.14-0.1c-0.01,0.03-0.02,0.06-0.02,0.09c-0.01,0.34-0.01,0.68-0.02,1.02
		c-0.07,2.81,0.15,5.59,1.07,8.27C133.97,49.82,136.74,52.47,141.04,53.41z M72.16,53.38c0.35,0.04,0.67-0.06,0.98-0.24
		c0.43-0.25,0.78-0.59,1.12-0.93c0.84-0.84,1.66-1.69,2.49-2.54c0,0,0,0,0,0c0.75-0.85,1.51-1.68,2.34-2.45c0,0,0,0,0,0
		c0.51-0.52,1.04-1.03,1.52-1.58c1.57-1.75,3.57-2.71,5.82-3.24c1.54-0.36,3.06-0.41,4.53,0.24c0.79,0.35,0.87,1.16,0.17,1.67
		c-0.42,0.31-0.91,0.51-1.41,0.66c-0.99,0.29-2.01,0.39-3.02,0.52c-1.19,0.15-2.39,0.29-3.47,0.9c-0.36,0.2-0.78,0.44-0.71,0.9
		c0.06,0.48,0.55,0.54,0.94,0.63c1.04,0.23,2.1,0.18,3.15,0.11c3.05-0.2,6.03-0.71,8.9-1.77c3.74-1.38,6.14-4.02,7.28-7.82
		c0.82-2.72,0.89-5.5,0.64-8.3c-0.06-0.72-0.11-1.44-0.28-2.16c-0.14,0.08-0.14,0.21-0.17,0.31c-0.74,2.55-2.26,4.5-4.48,5.93
		c-1.94,1.24-4.09,1.97-6.28,2.6c-2.64,0.76-5.32,1.34-7.92,2.23c-2.37,0.81-4.43,2.07-6.09,3.97c-1.63,1.86-3.17,3.78-4.55,5.84
		c-0.78,1.16-1.56,2.32-2.06,3.64C71.42,53.02,71.59,53.31,72.16,53.38z M156.76,52.05c-0.09-0.17-0.22-0.32-0.35-0.46
		c-0.13-0.14-0.29-0.35-0.48-0.29c-0.22,0.07-0.21,0.35-0.23,0.55c-0.1,0.91-0.03,1.81,0.17,2.71c0.19,0.89,0.62,1.63,1.36,2.18
		c0.15,0.11,0.32,0.29,0.52,0.21c0.24-0.1,0.09-0.34,0.13-0.5C157.83,55.57,157.15,52.82,156.76,52.05z M79.27,51.99
		c0.35,0.12,0.58-0.28,0.79-0.54c0.75-0.92,0.94-2,0.92-3.15c-0.03-0.4-0.03-0.81-0.09-1.21c-0.05-0.34-0.06-0.92-0.36-0.92
		c-0.39,0-0.67,0.48-0.77,0.9c-0.3,1.34-0.63,2.68-0.65,4.07C79.11,51.44,78.96,51.88,79.27,51.99z M222.17,74.31
		c-0.58-0.48-1.24-0.83-1.94-1.11c-2.11-0.83-4.32-1.17-6.56-1.36c-2.97-0.26-5.94-0.3-8.91-0.24c-3.45,0.06-6.89,0.26-10.32,0.55
		c-3.9,0.34-7.79,0.77-11.68,1.23c-4.03,0.48-8.06,1.02-12.07,1.61c-4.84,0.71-9.66,1.47-14.48,2.29
		c-6.16,1.04-12.32,2.15-18.46,3.28c-5.08,0.94-10.16,1.85-15.25,2.69c-4.18,0.7-8.36,1.37-12.56,1.97c-3.7,0.53-7.4,1.04-11.1,1.52
		c-3.33,0.43-6.68,0.79-10.03,1.12c-3.43,0.34-6.86,0.67-10.29,0.91c-3.81,0.27-7.62,0.46-11.44,0.56
		c-5.42,0.14-10.82,0.02-16.23-0.4c-0.47-0.04-0.94-0.07-1.41-0.1c10.95,5.61,22.69,8.02,34.84,8.78c0.22-0.23,0.16-0.52,0.16-0.79
		c0.01-2.4,0-4.81,0.01-7.21c0-0.6,0.04-0.64,0.63-0.64c1.71,0,3.41,0,5.12,0c0.75,0,0.75,0.01,0.75,0.77c0,2.45,0,4.91,0,7.36
		c0,0.27-0.06,0.56,0.17,0.78c2.66,0.03,5.32-0.03,7.98-0.13c0.3-0.08,0.61-0.1,0.92-0.1c1.2-0.02,2.41,0.05,3.61-0.04
		c0.22-0.07,0.45-0.08,0.68-0.07c0.21-0.02,0.43,0.03,0.63-0.05c0.04,0,0.08,0,0.12,0c0-0.03,0-0.05,0-0.08
		c0.21-0.03,0.42-0.06,0.63-0.08c4.83-0.35,9.63-0.96,14.42-1.7c7.92-1.22,15.75-2.85,23.52-4.82c11.27-2.86,22.55-5.67,33.97-7.88
		c7.58-1.47,15.17-2.83,22.9-3.21c2.5-0.12,5.01-0.16,7.49,0.24c1.25,0.2,2.49,0.49,3.57,1.2c1.16,0.77,1.54,1.76,1.21,3.12
		c-0.35,1.43-1.24,2.56-2.17,3.65c-1.47,1.73-3.2,3.19-4.97,4.6c-0.02,0.1,0.01,0.15,0.12,0.12c0.05-0.02,0.09-0.03,0.14-0.05
		c3.82-2.14,7.49-4.51,10.94-7.21c1.9-1.49,3.7-3.08,5.14-5.03c0.56-0.76,1.07-1.55,1.28-2.5
		C223.56,76.45,223.31,75.25,222.17,74.31z M78.84,47.75c-0.66,0.68-1.31,1.37-1.96,2.05c0,0,0,0,0,0
		c-0.82,0.85-1.32,1.86-1.55,3.02c-0.06,0.31-0.05,0.42,0.31,0.32c0.53-0.15,1.06-0.31,1.6-0.39c0.47-0.07,0.68-0.32,0.84-0.74
		c0.45-1.24,0.75-2.51,1.03-3.79l0.1-0.68C79.01,47.59,78.93,47.65,78.84,47.75z"/>
	<path class="st1" d="M93.99,59.63c1.49,0.07,2.46-1.06,2.57-2.31c0.04-1.18-1.04-2.43-2.18-2.45c-1.39-0.02-2.48,1-2.52,2.35
		C91.83,58.26,92.78,59.57,93.99,59.63z M87.26,60.61c1.22,0.03,2.14-0.86,2.25-2.27c0.07-0.91-0.91-2.11-2.04-2.13
		c-1.15-0.02-2.15,0.87-2.22,2.08C84.99,59.36,86.16,60.58,87.26,60.61z M101.58,59.39c1.3,0.01,2.46-1.29,2.48-2.82
		c0.04-1.5-1.34-2.56-2.5-2.58c-1.51-0.02-2.89,1.27-2.79,2.75C98.85,58.02,99.82,59.38,101.58,59.39z M80.62,61.19
		c1.03,0.07,2.36-0.88,2.3-2.19c0.07-1.16-0.91-2.22-2.11-2.29c-1.17-0.06-2.19,0.93-2.26,2.2C78.49,60.04,79.47,61.12,80.62,61.19z
		 M80.37,74.95c1.14,0.78,2.41,1.3,3.68,1.81c-0.08-0.26-0.08-0.26-0.29-0.45c-1.04-0.9-2.09-1.8-3.03-2.82
		c-2.08-2.28-2.5-4.83-1.32-7.67c0.3-0.72,0.66-1.4,1.05-2.1c-0.07-0.03-0.09-0.05-0.1-0.04c-0.05,0.01-0.09,0.02-0.14,0.04
		c-2,0.75-2.93,2.32-3.15,4.32C76.76,70.98,77.95,73.27,80.37,74.95z M117.73,63.56c1.7,0.07,3.69-1.31,3.68-3.76
		c-0.05-1.79-1.48-3.5-3.51-3.53c-2.07-0.02-3.48,1.39-3.66,3.32C114.05,61.75,115.6,63.48,117.73,63.56z M148.43,68.98
		c2.06,0.21,3.75-1.37,3.96-3.4c0.05-1.92-1.31-3.71-3.37-3.86c-1.89-0.13-3.81,1.43-3.83,3.62
		C145.18,67.17,146.53,68.79,148.43,68.98z M109.25,60.48c1.53,0.07,3.13-1.45,3.16-3.01c0.03-1.85-1.46-3.28-3.01-3.3
		c-1.49-0.01-3.18,1.1-3.16,3.22C106.17,58.93,107.61,60.4,109.25,60.48z M163.47,64.42c0.85-0.04,1.81-0.94,1.74-1.72
		c-0.09-1.02-0.76-1.77-1.69-1.81c-1.01-0.05-1.9,0.92-1.77,1.81C161.72,63.78,162.69,64.46,163.47,64.42z M156.14,64.03
		c1.44,0.07,2.53-1.03,2.63-2.31c0.1-1.22-1.1-2.67-2.29-2.59c-1.35-0.09-2.36,0.94-2.59,2.2
		C153.67,62.51,154.92,63.97,156.14,64.03z M138.26,70.9c2.19-0.08,4.35-1.91,4.37-4.84c0.05-2.43-2.17-4.71-4.63-4.68
		c-2.66,0.03-4.87,2.15-4.76,5C133.32,68.51,134.86,71.02,138.26,70.9z M74.17,60.66c1,0.02,2.29-1.01,2.29-2.37
		c0.01-1.12-1.05-2.3-2.2-2.36c-1.46-0.05-2.43,1.09-2.48,2.22C71.73,59.5,72.71,60.63,74.17,60.66z M205.26,92.91
		c0.16-0.1,0.33-0.19,0.49-0.29c-0.04-0.04-0.08-0.08-0.12-0.12c-0.16,0.11-0.31,0.21-0.47,0.32v0c-0.11,0.05-0.22,0.11-0.27,0.25
		C205.05,93.1,205.15,93,205.26,92.91C205.26,92.91,205.26,92.91,205.26,92.91z M194.25,100.98c-2.19-4.39-7.94-4.64-10.85-3.03
		c-1.26,0.7-2.26,1.68-3.24,2.91c0-1.08-0.01-2.01,0.01-2.95c0.01-0.33-0.07-0.45-0.42-0.44c-2,0.02-4,0.02-6,0
		c-0.31,0-0.41,0.07-0.41,0.4c0.01,7.74,0.01,15.47,0,23.21c0,0.32,0.09,0.4,0.4,0.4c2-0.01,4-0.02,6,0c0.35,0,0.43-0.1,0.43-0.44
		c-0.02-1.93-0.01-3.87-0.01-5.8c0-2.55-0.02-5.1,0.02-7.65c0.04-2.44,1.36-3.98,3.6-4.31c2.31-0.34,4.13,0.93,4.58,3.21
		c0.13,0.64,0.16,1.29,0.16,1.94c0,4.19,0.01,8.39-0.01,12.58c0,0.38,0.1,0.48,0.48,0.48c1.95-0.02,3.9-0.02,5.85,0
		c0.4,0,0.47-0.12,0.47-0.49c-0.01-5.17,0-10.34-0.01-15.5C195.3,103.92,194.96,102.41,194.25,100.98z M165.62,105.84
		c0-0.95-0.08-1.88-0.29-2.8c-0.6-2.65-2.01-4.69-4.69-5.49c-3.53-1.05-6.81-0.51-9.66,1.96c-0.46,0.4-0.86,0.86-1.3,1.31
		c-2.24-4.53-10.06-5.46-13.82-0.01c0-1.01-0.02-1.95,0.01-2.88c0.01-0.37-0.1-0.46-0.46-0.46c-1.97,0.02-3.93,0.02-5.9,0
		c-0.4,0-0.47,0.12-0.47,0.49c0.01,7.67,0.01,15.34,0,23.02c0,0.39,0.07,0.52,0.49,0.51c1.93-0.03,3.87-0.03,5.8,0
		c0.43,0.01,0.54-0.1,0.53-0.53c-0.02-4.21-0.01-8.42-0.01-12.63c0-0.7,0.04-1.39,0.21-2.08c0.47-1.9,1.86-2.99,3.85-3.01
		c1.99-0.02,3.29,1.01,3.79,2.97c0.19,0.73,0.22,1.48,0.22,2.22c0.01,4.16,0.01,8.32-0.01,12.48c0,0.49,0.14,0.58,0.59,0.57
		c1.89-0.03,3.77-0.02,5.66,0c0.43,0.01,0.57-0.08,0.56-0.54c-0.02-4.1-0.02-8.19-0.01-12.29c0-0.55,0.03-1.1,0.08-1.65
		c0.22-2.13,1.47-3.46,3.47-3.73c2.13-0.28,3.74,0.79,4.29,2.85c0.13,0.5,0.22,1.02,0.22,1.54c0.01,4.45,0.02,8.91,0.01,13.36
		c0,0.36,0.07,0.46,0.45,0.46c1.95-0.02,3.9-0.02,5.85,0c0.43,0.01,0.53-0.11,0.53-0.53C165.62,115.91,165.62,110.88,165.62,105.84z
		 M223.63,107.67c0-0.81-0.04-1.62-0.14-2.43c-0.48-3.95-2.8-6.7-6.67-7.56c-4.42-0.98-8.74-0.45-12.91,1.34
		c-0.29,0.12-0.24,0.27-0.16,0.5c0.48,1.46,0.98,2.92,1.43,4.4c0.12,0.38,0.25,0.43,0.61,0.29c2.08-0.8,4.24-1.21,6.48-1.15
		c0.97,0.03,1.91,0.17,2.78,0.62c1.48,0.77,2,2.08,2.08,3.66c0.02,0.37-0.04,0.48-0.44,0.34c-2.85-0.94-5.76-1.1-8.7-0.53
		c-1.79,0.34-3.41,1.05-4.67,2.43c-1.44,1.59-1.81,3.52-1.69,5.57c0.13,2.29,1.1,4.16,3.07,5.36c2.96,1.8,6.09,1.8,9.27,0.62
		c1.18-0.44,2.16-1.23,3.11-2.21c0,0.78,0.02,1.45-0.01,2.13c-0.01,0.34,0.08,0.43,0.43,0.43c1.89-0.02,3.77-0.02,5.66,0
		c0.4,0,0.52-0.09,0.51-0.5C223.62,116.55,223.63,112.11,223.63,107.67z M217.17,112.19c-0.04,0.53,0.05,1.07-0.07,1.6
		c-0.36,1.71-1.8,2.95-3.8,3.29c-0.45,0.08-0.9,0.13-1.36,0.11c-0.66,0.03-1.29-0.06-1.91-0.29c-1.04-0.4-1.72-1.11-1.85-2.24
		c-0.14-1.24,0.25-2.28,1.36-2.96c0.93-0.58,1.96-0.74,3.03-0.77c1.46-0.04,2.87,0.2,4.24,0.72
		C217.07,111.76,217.19,111.89,217.17,112.19z M224.36,57.88c-2.76-0.69-5.52-1.33-8.3-1.92c-3.05-0.65-6.1-1.3-9.21-1.64
		c-2.99-0.33-5.99-0.51-9-0.59c-4.32-0.12-8.6,0.15-12.81,1.28c-6.2,1.65-12.24,3.84-18.41,5.57c-0.26,0.07-0.24,0.2-0.18,0.39
		c0.17,0.49,0.35,0.98,0.48,1.48c0.1,0.4,0.28,0.44,0.66,0.34c3.71-1.03,7.36-2.23,11.07-3.25c4.5-1.23,9.07-2.03,13.71-2.42
		c3.89-0.33,7.79-0.42,11.69-0.35c4.34,0.08,8.67,0.34,12.99,0.7c2.07,0.18,4.15,0.34,6.22,0.51c0.1,0.04,0.19,0.05,0.29,0.05
		c0.47,0.07,0.95,0.08,1.42,0.03C224.8,57.93,224.59,57.86,224.36,57.88z M131.45,63.04c0.09-2.01-1.58-4.11-3.83-4.26
		c-2.25-0.16-4.12,1.64-4.37,3.59c-0.33,2.51,1.54,4.63,3.86,4.78C128.97,67.25,131.41,65.71,131.45,63.04z M120.61,97.47
		c-1.93,0.02-3.87,0.02-5.8,0c-0.4,0-0.51,0.09-0.51,0.5c0.02,4.23,0.01,8.45,0.01,12.68c0,0.63-0.04,1.27-0.19,1.89
		c-0.37,1.54-1.22,2.67-2.82,3.04c-1.54,0.36-3.03,0.23-4.2-1c-0.85-0.9-1.13-2.05-1.14-3.23c-0.03-4.31-0.02-8.62-0.03-12.92
		c0-0.91,0-0.91-0.88-0.96c-0.25-0.07-0.51-0.02-0.77-0.03c-0.2,0.01-0.4-0.03-0.59,0.03c-1.4,0.01-2.79,0.01-4.19,0.02
		c-0.19,0-0.41-0.05-0.41,0.25c0.01,0.19,0.02,0.39,0.02,0.58c0,5.01-0.01,10.01,0.01,15.02c0.01,1.67,0.33,3.29,1.14,4.78
		c1.71,3.16,5.04,4.16,8.44,3.68c2.18-0.31,3.81-1.56,5.19-3.2c0.11-0.14,0.19-0.33,0.42-0.38c0,0.96,0.01,1.89-0.01,2.81
		c-0.01,0.32,0.06,0.45,0.42,0.44c1.98-0.02,3.97-0.02,5.95,0c0.4,0,0.44-0.15,0.44-0.48c-0.01-7.69-0.01-15.38,0-23.07
		C121.11,97.53,120.97,97.47,120.61,97.47z M39.4,107.34c-0.19-0.3-0.19-0.46,0.07-0.73c2.41-2.46,4.79-4.95,7.19-7.42
		c0.52-0.54,1.05-1.09,1.6-1.67c-0.12-0.02-0.16-0.04-0.2-0.04c-2.55,0-5.1,0-7.66-0.01c-0.25,0-0.38,0.12-0.53,0.28
		c-1.16,1.27-2.32,2.54-3.48,3.82c-1.38,1.51-2.75,3.02-4.21,4.62v-0.67c0-5.4,0-10.79,0.01-16.19c0-0.39-0.07-0.53-0.5-0.52
		c-1.97,0.02-3.93,0.02-5.9,0c-0.34,0-0.43,0.09-0.43,0.43c0.01,10.61,0.01,21.23,0,31.84c0,0.33,0.1,0.4,0.41,0.4
		c1.98-0.01,3.97-0.02,5.95,0c0.41,0,0.47-0.13,0.47-0.5c-0.02-2.13-0.01-4.26-0.01-6.39c0-0.23,0.02-0.43,0.2-0.62
		c0.71-0.73,1.41-1.48,2.11-2.22c0.21,0.12,0.28,0.33,0.39,0.5c1.88,2.93,3.75,5.85,5.61,8.79c0.21,0.33,0.43,0.45,0.82,0.44
		c1.76-0.02,3.51-0.01,5.27-0.01c0.65,0,1.29,0,1.94,0c0.01-0.2-0.11-0.3-0.19-0.42C45.35,116.49,42.38,111.91,39.4,107.34z
		 M120.66,77.5c-7.02-0.13-14.04,0.01-21.05,0.51c-3.91,0.27-7.8,0.66-11.69,1.13c-4.07,0.48-8.13,0.95-12.2,1.42
		c-5.36,0.62-10.73,1.11-16.13,1.31c-5.19,0.19-10.37-0.04-15.54-0.51c-2.4-0.22-4.78-0.6-7.02-1.54c-2.48-1.04-3.99-2.84-4.19-5.6
		c-0.05-0.73-0.05-1.46,0.01-2.19c0.2-2.47,0.95-4.8,1.71-7.14c0.07-0.21,0.21-0.41,0.13-0.64c-0.12-0.04-0.19,0.04-0.26,0.1
		c-2.21,1.83-4.26,3.82-5.98,6.13c-1.44,1.94-2.68,3.99-3.24,6.38c-0.7,3.03,0.27,5.59,2.81,7.37c0.82,0.57,1.7,1.02,2.63,1.36
		c3.08,1.14,6.29,1.62,9.54,1.81c4.55,0.27,9.1,0.23,13.64-0.1c6.21-0.45,12.37-1.34,18.48-2.49c8.44-1.58,16.86-3.34,25.35-4.65
		c4.24-0.65,8.49-1.22,12.76-1.62c4.31-0.4,8.62-0.64,12.95-0.66c0.09,0,0.2,0.04,0.28-0.09c-0.46-0.07-0.9-0.15-1.35-0.19
		C121.77,77.55,121.22,77.51,120.66,77.5z M72.86,100.03c-3.55-2.9-7.64-3.58-12.02-2.53c-8.1,1.94-12.06,11.13-7.86,18.3
		c2.49,4.26,6.43,6.09,11.25,6.22c0.79,0.01,1.57-0.05,2.34-0.18c6.64-1.11,10.88-6.57,10.7-12.63
		C77.14,105.5,75.73,102.38,72.86,100.03z M68.37,114.71c-1.09,0.95-2.42,1.42-4.04,1.42c-3.17,0-5.79-2.33-6.21-5.48
		c-0.24-1.82,0.01-3.54,1.04-5.08c1.36-2.03,3.36-2.82,5.73-2.58c2.47,0.24,4.16,1.63,5.11,3.89
		C71.15,109.59,70.44,112.9,68.37,114.71z M91.12,97.87c-0.01-2.86-0.02-5.71-0.01-8.57c0-0.37-0.09-0.5-0.48-0.49
		c-1.93,0.02-3.86,0.03-5.8,0c-0.46-0.01-0.56,0.13-0.56,0.57c0.01,2.74,0,5.49-0.01,8.23c0.01,0.21,0.02,0.42,0.02,0.63
		c0,7.57,0,15.15-0.01,22.72c0,0.43,0.1,0.54,0.53,0.53c1.92-0.03,3.84-0.03,5.75,0c0.46,0.01,0.55-0.13,0.55-0.56
		c-0.01-7.49-0.01-14.99-0.01-22.48C91.11,98.26,91.12,98.06,91.12,97.87z M43.71,73.67c0.28,0.31,0.61,0.55,0.95,0.8
		c0.13,0.1,0.26,0.2,0.39,0.3c0,0,0,0,0,0c0.11,0.14,0.24,0.24,0.54,0.23c-0.2-0.16-0.32-0.25-0.43-0.34c0,0,0,0,0,0l0,0
		c-0.13-0.1-0.25-0.2-0.38-0.3v0c-0.3-0.28-0.59-0.57-0.89-0.85c-0.05-0.06-0.1-0.13-0.15-0.19c-2.9-3.36-4.32-7.26-3.93-11.69
		c0.59-6.56,3.98-11.17,10.11-13.59c3.36-1.32,6.83-1.42,10.21,0.07c2.55,1.12,4.46,3.06,6.16,5.2c1.11,1.39,2.06,2.88,3.02,4.37
		c0.15,0.23,0.23,0.33,0.43,0.04c0.34-0.5,0.72-0.97,1.08-1.45c0.08-0.11,0.22-0.2,0.1-0.38c-0.5-0.81-0.68-1.75-1.1-2.6
		c-2.91-5.87-7.62-9.17-14.13-9.82c-2.77-0.27-5.44,0.33-7.96,1.5c-7.5,3.47-11.45,11.81-9.42,19.86
		C39.2,68.33,40.97,71.3,43.71,73.67z"/>
</g>
</svg>
