<?xml version="1.0" encoding="utf-8"?>
<!-- Generator: Adobe Illustrator 24.2.1, SVG Export Plug-In . SVG Version: 6.00 Build 0)  -->
<svg version="1.1" id="Layer_1" xmlns="http://www.w3.org/2000/svg" xmlns:xlink="http://www.w3.org/1999/xlink" x="0px" y="0px"
	 viewBox="0 0 24 24" style="enable-background:new 0 0 24 24;" xml:space="preserve">
<style type="text/css">
	.st0{clip-path:url(#SVGID_2_);}
	.st1{fill:#0077C3;}
	.st2{fill:#84CB26;}
</style>
<g>
	<defs>
		<rect id="SVGID_1_" x="2" y="2" width="20" height="20"/>
	</defs>
	<clipPath id="SVGID_2_">
		<use xlink:href="#SVGID_1_"  style="overflow:visible;"/>
	</clipPath>
	<g class="st0">
		<path class="st1" d="M12.46,4.55c-0.17,0.17-0.85,0.38-1.34,0.54C9.88,5.48,8.47,5.92,8.06,7.08C7.83,7.74,7.99,8.49,8.53,9.3
			c0.37,0.56,0.79,0.96,1.19,1.24c-1.8,1.11-4.7,3.31-4.98,6.11c-0.19,1.89,0.82,3.68,3,5.31l0.86-1.15
			c-1.75-1.31-2.57-2.66-2.43-4.02c0.32-3.19,5.52-5.71,5.57-5.73c0.3-0.15,0.46-0.48,0.38-0.81c-0.08-0.33-0.4-0.58-0.72-0.56
			c-0.03,0-0.88,0-1.68-1.19c-0.16-0.23-0.4-0.67-0.31-0.94c0.17-0.48,1.3-0.84,2.13-1.1c0.81-0.26,1.51-0.48,1.93-0.89
			c1.14-1.14,1.17-3.16,1.17-3.39l-1.44,0C13.21,2.63,13.07,3.94,12.46,4.55z M18.7,15.82c-0.11-0.19-0.2-0.36-0.29-0.52
			c-0.52-1.04-0.29-1.78,0.06-2.9c0.18-0.57,0.38-1.21,0.48-1.96c0.49-3.44-0.45-8.21-0.49-8.41l-1.41,0.28
			c0.01,0.05,0.93,4.72,0.47,7.92c-0.09,0.63-0.27,1.19-0.43,1.73c-0.37,1.19-0.76,2.42,0.02,3.98c0.09,0.18,0.2,0.38,0.32,0.59
			c0.74,1.3,1.51,2.65-0.19,4.34l1.02,1.02C20.75,19.43,19.42,17.08,18.7,15.82z"/>
		<path class="st2" d="M13.45,14.55c-0.13-0.05-0.28-0.01-0.41,0.12l0.14,0.14c0.07-0.07,0.14-0.09,0.19-0.08
			c0.06,0.02,0.1,0.1,0.11,0.19c0,0.08-0.02,0.34-0.42,0.54l0.09,0.18c0.34-0.17,0.54-0.45,0.53-0.73
			C13.68,14.75,13.58,14.6,13.45,14.55z M11.7,15.44l-0.08,0.18c0.01,0.01,0.1,0.04,0.2,0.04c0.04,0,0.09-0.01,0.14-0.02
			c0.1-0.04,0.18-0.11,0.23-0.23l-0.18-0.08C11.92,15.52,11.74,15.45,11.7,15.44z M13.89,13.4c-0.75-0.75-1.83-0.53-2.47,0.07
			c-0.57,0.54-0.83,1.43-0.25,2.3c-0.01,0.01-0.03,0-0.04,0.01c-0.11,0.05-0.21,0.15-0.28,0.27c-0.22-0.08-0.44-0.1-0.6-0.1
			c-0.4,0-1.01,0.51-1.33,0.8c-0.19-0.36-0.71-0.25-0.71,0.29c0,0.46,0,1.09,0.62,1.09c0.19,0,0.39-0.07,0.55-0.15
			c-0.12,0.4-0.06,0.77,0.19,1.05c0.23,0.26,0.62,0.43,1.14,0.43c0.42,0,0.93-0.12,1.49-0.4c1.7-0.85,1.58-2.1,1.51-2.45
			c0.13-0.14,0.43-0.51,0.62-0.99C14.67,14.8,14.51,14.03,13.89,13.4z M13.44,16.47c-0.04,0.04-0.05,0.1-0.04,0.15
			c0.02,0.05,0.4,1.31-1.34,2.18c-1.1,0.55-1.95,0.4-2.27,0.04c-0.26-0.3-0.22-0.75,0.1-1.24c0.04-0.06,0.03-0.15-0.03-0.2
			s-0.15-0.04-0.2,0.01c0,0-0.43,0.43-0.84,0.43c-0.28,0-0.32-0.2-0.32-0.79c0-0.28,0.17-0.29,0.17,0c0,0.06,0.04,0.12,0.09,0.14
			c0.06,0.02,0.12,0.01,0.16-0.03c0.35-0.35,1.01-0.9,1.31-0.9c0.14,0,0.33,0.01,0.49,0.07c-0.02,0.07-0.02,0.14-0.02,0.22
			c0.02,0.28,0.19,0.51,0.48,0.64c-0.01,0.22-0.04,0.48-0.12,0.77c-0.02,0.06,0.02,0.12,0.08,0.14c0.01,0,0.02,0,0.03,0
			c0.05,0,0.1-0.03,0.11-0.08l0.23-0.69l0.02-0.03c0.55,0.12,1.26,0.13,1.29,0.13v-0.3c-0.01,0-0.93,0-1.44-0.17
			c-0.24-0.08-0.38-0.23-0.39-0.43c-0.01-0.21,0.11-0.41,0.24-0.47c0.06-0.03,0.1-0.02,0.15,0.02c0.41,0.39,1.8,0.85,1.86,0.87
			l0.1-0.29c-0.38-0.13-1.45-0.52-1.75-0.81c-0.77-0.87-0.47-1.71,0.02-2.17c0.53-0.5,1.43-0.7,2.05-0.08
			C14.97,14.91,13.5,16.41,13.44,16.47z"/>
	</g>
</g>
</svg>
