<svg width="80" height="63" viewBox="0 0 80 63" fill="none" xmlns="http://www.w3.org/2000/svg">
<path d="M45.8577 58.0437L48.7587 62.5C68.8424 49.0196 80 32.6426 80 19.1622C80 6.12745 70.4045 0 62.2594 0C51.9944 0 44.742 8.68984 44.742 17.8253C44.742 25.5125 49.6513 32.0856 56.2343 34.5365C58.1311 35.205 59.9163 35.762 59.9163 38.9929C59.9163 43.115 56.9038 49.2424 45.8577 58.0437ZM1.56207 58.0437L4.46304 62.5C24.3236 49.0196 35.7043 32.6426 35.7043 19.1622C35.7043 6.12745 25.8856 0 17.7406 0C7.36401 0 0 8.68984 0 17.8253C0 25.5125 5.02092 32.0856 11.8271 34.5365C13.7238 35.205 15.3975 35.762 15.3975 38.9929C15.3975 43.115 12.2734 49.2424 1.56207 58.0437Z" fill="#0077C3"/>
</svg>
