<svg width="22" height="21" viewBox="0 0 22 21" fill="none" xmlns="http://www.w3.org/2000/svg">
<path d="M18.7049 3.05156C16.6473 1.08281 13.9071 0 10.9951 0C4.98437 0 0.0933036 4.66875 0.0933036 10.4062C0.0933036 12.2391 0.594196 14.0297 1.54688 15.6094L0 21L5.77991 19.5516C7.37098 20.3813 9.16339 20.8172 10.9902 20.8172H10.9951C17.0009 20.8172 22 16.1484 22 10.4109C22 7.63125 20.7625 5.02031 18.7049 3.05156ZM10.9951 19.0641C9.36473 19.0641 7.76875 18.6469 6.37902 17.8594L6.05 17.6719L2.62232 18.5297L3.53571 15.3375L3.31964 15.0094C2.41116 13.6313 1.93482 12.0422 1.93482 10.4062C1.93482 5.63906 6.00089 1.75781 11 1.75781C13.421 1.75781 15.6946 2.65781 17.4036 4.29375C19.1125 5.92969 20.1634 8.1 20.1585 10.4109C20.1585 15.1828 15.9893 19.0641 10.9951 19.0641ZM15.9647 12.5859C15.6946 12.4547 14.354 11.8266 14.1036 11.7422C13.8531 11.6531 13.6714 11.6109 13.4897 11.8734C13.308 12.1359 12.7875 12.7172 12.6254 12.8953C12.4683 13.0688 12.3062 13.0922 12.0362 12.9609C10.4353 12.1969 9.38438 11.5969 8.32857 9.86719C8.04866 9.40781 8.60848 9.44063 9.12902 8.44687C9.21741 8.27344 9.17321 8.12344 9.10446 7.99219C9.03571 7.86094 8.49063 6.58125 8.26473 6.06094C8.04375 5.55469 7.81786 5.625 7.65089 5.61563C7.49375 5.60625 7.31205 5.60625 7.13036 5.60625C6.94866 5.60625 6.65402 5.67188 6.40357 5.92969C6.15312 6.19219 5.45089 6.82031 5.45089 8.1C5.45089 9.37969 6.42813 10.6172 6.56071 10.7906C6.69821 10.9641 8.4808 13.5891 11.2161 14.7188C12.9446 15.4312 13.6223 15.4922 14.4866 15.3703C15.0121 15.2953 16.0973 14.7422 16.3232 14.1328C16.5491 13.5234 16.5491 13.0031 16.4804 12.8953C16.4165 12.7781 16.2348 12.7125 15.9647 12.5859Z" fill="white"/>
</svg>
